<svg width="22" height="22" viewBox="0 0 22 22" fill="none" xmlns="http://www.w3.org/2000/svg">
<path d="M20.6058 14.7144H20.0801V10.2746C20.0801 9.75299 19.9125 9.25192 19.6168 8.88228L16.3344 4.77927C16.0387 4.40962 15.6378 4.20016 15.2205 4.20016H13.7715V2.22874C13.7715 1.14036 13.0651 0.257324 12.1944 0.257324H1.68016C0.809452 0.257324 0.103027 1.14036 0.103027 2.22874V15.3715C0.103027 16.4599 0.809452 17.343 1.68016 17.343H2.20587C2.20587 19.5197 3.61872 21.2858 5.36014 21.2858C7.10156 21.2858 8.51441 19.5197 8.51441 17.343H12.7201C12.7201 19.5197 14.133 21.2858 15.8744 21.2858C17.6158 21.2858 19.0286 19.5197 19.0286 17.343H20.6058C20.8949 17.343 21.1315 17.0472 21.1315 16.6858V15.3715C21.1315 15.0101 20.8949 14.7144 20.6058 14.7144ZM5.36014 19.3144C4.48943 19.3144 3.78301 18.4313 3.78301 17.343C3.78301 16.2546 4.48943 15.3715 5.36014 15.3715C6.23085 15.3715 6.93728 16.2546 6.93728 17.343C6.93728 18.4313 6.23085 19.3144 5.36014 19.3144ZM10.0915 9.12871C10.0915 9.30942 9.97326 9.45728 9.82869 9.45728H7.9887V11.7573C7.9887 11.938 7.87042 12.0858 7.72585 12.0858H6.14871C6.00414 12.0858 5.88586 11.938 5.88586 11.7573V9.45728H4.04586C3.90129 9.45728 3.78301 9.30942 3.78301 9.12871V7.15729C3.78301 6.97658 3.90129 6.82872 4.04586 6.82872H5.88586V4.52873C5.88586 4.34802 6.00414 4.20016 6.14871 4.20016H7.72585C7.87042 4.20016 7.9887 4.34802 7.9887 4.52873V6.82872H9.82869C9.97326 6.82872 10.0915 6.97658 10.0915 7.15729V9.12871ZM15.8744 19.3144C15.0037 19.3144 14.2972 18.4313 14.2972 17.343C14.2972 16.2546 15.0037 15.3715 15.8744 15.3715C16.7451 15.3715 17.4515 16.2546 17.4515 17.343C17.4515 18.4313 16.7451 19.3144 15.8744 19.3144ZM18.5029 10.7716H13.7715V6.17158H15.2205L18.5029 10.2746V10.7716Z" fill="#FF4C4C"/>
</svg>
