<svg id="Capa_1" enable-background="new 0 0 494.979 494.979" height="512" viewBox="0 0 494.979 494.979" width="512" xmlns="http://www.w3.org/2000/svg"><g><g><path d="m179.646 121.94c-1.919 0-3.839-.732-5.304-2.196l-77.788-77.789h-77.812c-4.143 0-7.5-3.357-7.5-7.5s3.357-7.5 7.5-7.5h80.919c1.989 0 3.896.79 5.304 2.196l79.985 79.985c2.929 2.93 2.929 7.678 0 10.607-1.465 1.465-3.385 2.197-5.304 2.197z" fill="#fee97d"/></g><g><g id="XMLID_310_"><g><path d="m493.159 337.472-132.35-75.04-33.448-5.267-79.392 45.892-.19 23.465-.5 33.253 91.497 52.794 48.103-6.967 106.32-61.9c2.39-1.4 2.37-4.86-.04-6.23z" fill="#e19974"/><path d="m254.779 298.395-79.521-49.292-40.129 13.54-131.98 74.83c-2.41 1.37-2.43 4.83-.03 6.23l105.75 61.58h.01l.001-.001 54.052-3.836s83.787-51.133 85.036-52.738-.19-22.186-.19-22.186z" fill="#e19974"/><path d="m360.809 262.432-113.03 64.09-112.65-63.88 111.25-63.08c1.1-.63 2.45-.63 3.55 0z" fill="#e8ad8c"/><path d="m173.449 395.018c-6.406 3.919-10.516 6.427-10.516 6.427l-54.052 3.836-.001.001h-.01l-105.75-61.58c-2.4-1.4-2.38-4.86.03-6.23l131.98-74.83 40.129-13.54 29.593 18.344-88.841 50.552c-16.523 9.402-16.724 33.146-.362 42.826z" fill="#dc8758"/><path d="m386.689 405.282.19.32-136.92 79.72c-1.11.65-2.49.65-3.61 0l-137.47-80.04 138.9-78.76z" fill="#e8ad8c"/><g fill="#e19974"><path d="m189.106 404.13.001-.001-.001.001h-.01l-38.573-22.462-41.644 23.613 137.47 80.04c1.12.65 2.5.65 3.61 0l39.297-22.88z"/><path d="m215.356 261.49 71.896-40.766-37.323-21.163c-1.1-.63-2.45-.63-3.55 0l-111.25 63.08 39.095 22.169z"/></g></g></g><path d="m413 132.148h-35.709v-18.996c0-38.737 31.402-70.139 70.139-70.139h30.31c2.982 0 5.4 2.417 5.4 5.4v13.597c-.001 38.736-31.403 70.138-70.14 70.138z" fill="#bbec6c"/><path d="m350.791 164.927h28.321v-21.661c0-27.753-22.498-50.252-50.252-50.252h-23.971c-2.402 0-4.349 1.947-4.349 4.349v17.311c-.001 27.754 22.498 50.253 50.251 50.253z" fill="#bbec6c"/><path d="m329.045 114.675v-17.311c0-2.046 1.418-3.75 3.321-4.214-1.16-.08-2.326-.135-3.506-.135h-23.971c-2.402 0-4.349 1.947-4.349 4.349v17.312c0 27.753 22.498 50.252 50.252 50.252h28.321v-.005c-27.669-.101-50.068-22.557-50.068-50.248z" fill="#a2e62e"/><g><path d="m379.112 341.297c-4.143 0-7.5-3.357-7.5-7.5v-201.86c0-4.143 3.357-7.5 7.5-7.5s7.5 3.357 7.5 7.5v201.86c0 4.143-3.358 7.5-7.5 7.5z" fill="#bbec6c"/></g><path d="m404.696 235.289h-25.585v-15.297c0-17.356 14.07-31.426 31.426-31.426h18.918c3.682 0 6.667 2.985 6.667 6.667v8.63c.001 17.356-14.069 31.426-31.426 31.426z" fill="#bbec6c"/><path d="m99.661 243.276h-17.704c-19.159 0-34.69-15.531-34.69-34.69v-11.356c0-3.507 2.843-6.35 6.35-6.35h11.355c19.159 0 34.69 15.531 34.69 34.69v17.706z" fill="#bbec6c"/><path d="m63.847 208.585v-11.355c0-2.974 2.047-5.463 4.808-6.153-1.211-.128-2.439-.196-3.684-.196h-11.355c-3.507 0-6.35 2.843-6.35 6.35v11.355c0 19.159 15.531 34.69 34.69 34.69h16.58c-19.158 0-34.689-15.532-34.689-34.691z" fill="#a2e62e"/><path d="m117.597 226.509h-17.936v-15.001c0-13.707 11.112-24.819 24.819-24.819h11.709c3.439 0 6.226 2.787 6.226 6.226v8.775c0 13.708-11.111 24.819-24.818 24.819z" fill="#bbec6c"/><g><path d="m99.661 351.793c-4.143 0-7.5-3.357-7.5-7.5v-117.784c0-4.143 3.357-7.5 7.5-7.5s7.5 3.357 7.5 7.5v117.784c0 4.143-3.358 7.5-7.5 7.5z" fill="#bbec6c"/></g><g fill="#bbec6c"><path d="m229.085 415.244h18.194v-14.142c0-9.66-7.831-17.491-17.491-17.491h-11.455c-3.722 0-6.739 3.017-6.739 6.739v7.403c0 9.66 7.831 17.491 17.491 17.491z"/><path d="m229.085 156.514h18.194v-14.142c0-9.66-7.831-17.491-17.491-17.491h-11.455c-3.722 0-6.739 3.017-6.739 6.739v7.403c0 9.66 7.831 17.491 17.491 17.491z"/><path d="m265.473 170.361h-18.194v-14.142c0-9.66 7.831-17.491 17.491-17.491h11.455c3.722 0 6.739 3.017 6.739 6.739v7.403c0 9.66-7.831 17.491-17.491 17.491z"/><path d="m264.277 415.244h-16.998v-11.549c0-8.864 7.185-16.049 16.049-16.049h12.073c2.72 0 4.925 2.205 4.925 4.925v6.625c0 8.863-7.186 16.048-16.049 16.048z"/></g><g><path d="m247.279 447.368c-4.143 0-7.5-3.357-7.5-7.5v-24.624c0-4.143 3.357-7.5 7.5-7.5s7.5 3.357 7.5 7.5v24.624c0 4.142-3.358 7.5-7.5 7.5z" fill="#bbec6c"/></g><g><path d="m247.279 270.141c-4.143 0-7.5-3.357-7.5-7.5v-106.423c0-4.143 3.357-7.5 7.5-7.5s7.5 3.357 7.5 7.5v106.423c0 4.143-3.358 7.5-7.5 7.5z" fill="#bbec6c"/></g><circle cx="25.285" cy="34.455" fill="#f37c7c" r="25.285"/><g><path d="m99.661 98.361h-40.896c-4.143 0-7.5-3.357-7.5-7.5s3.357-7.5 7.5-7.5h40.896c4.143 0 7.5 3.357 7.5 7.5s-3.358 7.5-7.5 7.5z" fill="#bbec6c"/></g><g><path d="m99.661 129.482h-85.359c-4.143 0-7.5-3.357-7.5-7.5s3.357-7.5 7.5-7.5h85.358c4.143 0 7.5 3.357 7.5 7.5s-3.357 7.5-7.499 7.5z" fill="#bbec6c"/></g><g><path d="m99.661 160.602h-85.359c-4.143 0-7.5-3.357-7.5-7.5s3.357-7.5 7.5-7.5h85.358c4.143 0 7.5 3.357 7.5 7.5s-3.357 7.5-7.499 7.5z" fill="#bbec6c"/></g><g><path d="m31.717 98.361h-17.415c-4.143 0-7.5-3.357-7.5-7.5s3.357-7.5 7.5-7.5h17.415c4.143 0 7.5 3.357 7.5 7.5s-3.357 7.5-7.5 7.5z" fill="#bbec6c"/></g></g></g></svg>