<svg width="22" height="22" viewBox="0 0 22 22" fill="none" xmlns="http://www.w3.org/2000/svg">
<path d="M18.382 1.57111H17.8445C17.3648 0.777619 16.6107 0.256836 15.7535 0.256836C14.3018 0.256836 13.1249 1.72801 13.1249 3.54253V4.40421L0.905053 16.4212C0.781741 16.5368 0.681648 16.6867 0.612699 16.859C0.543751 17.0313 0.507841 17.2213 0.507812 17.4139C0.507812 18.3364 1.28455 18.9364 1.94465 18.5241L5.93809 16.0282H9.10846L10.5676 20.9608C10.6422 21.2167 10.8683 21.3485 11.073 21.2553L11.8139 20.9181C12.0186 20.8249 12.1241 20.5423 12.0495 20.2864L10.7901 16.0282H12.0735C12.1362 16.0282 12.197 16.0187 12.2594 16.0163L13.7219 20.9604C13.7965 21.2163 14.0225 21.3481 14.2272 21.2549L14.9682 20.9177C15.1729 20.8245 15.2783 20.5419 15.2038 20.286L13.8487 15.7054C16.4678 14.7468 18.382 11.7264 18.382 8.14251V4.85681L21.5363 4.19967C21.5363 2.74781 20.1241 1.57111 18.382 1.57111ZM15.7535 4.52824C15.3181 4.52824 14.9649 4.08673 14.9649 3.54253C14.9649 2.99793 15.3181 2.55682 15.7535 2.55682C16.1888 2.55682 16.542 2.99793 16.542 3.54253C16.542 4.08673 16.1888 4.52824 15.7535 4.52824Z" fill="#50A25E"/>
</svg>
