<svg width="19" height="25" viewBox="0 0 19 25" fill="none" xmlns="http://www.w3.org/2000/svg">
<path d="M0.416992 22.3341C0.416992 23.5857 1.30002 24.6012 2.38841 24.6012H16.8455C17.9339 24.6012 18.8169 23.5857 18.8169 22.3341V9.48698H0.416992V22.3341ZM3.04555 13.2655C3.04555 12.8499 3.34126 12.5098 3.70269 12.5098H15.5312C15.8926 12.5098 16.1883 12.8499 16.1883 13.2655V16.2884C16.1883 16.704 15.8926 17.0441 15.5312 17.0441H3.70269C3.34126 17.0441 3.04555 16.704 3.04555 16.2884V13.2655ZM16.8455 3.4413H14.8741V1.17417C14.8741 0.758527 14.5784 0.418457 14.2169 0.418457H12.9026C12.5412 0.418457 12.2455 0.758527 12.2455 1.17417V3.4413H6.98839V1.17417C6.98839 0.758527 6.69268 0.418457 6.33125 0.418457H5.01697C4.65554 0.418457 4.35983 0.758527 4.35983 1.17417V3.4413H2.38841C1.30002 3.4413 0.416992 4.45678 0.416992 5.70843V7.97556H18.8169V5.70843C18.8169 4.45678 17.9339 3.4413 16.8455 3.4413Z" fill="#6FAEFF"/>
</svg>
