<svg width="23" height="17" viewBox="0 0 23 17" fill="none" xmlns="http://www.w3.org/2000/svg">
<path d="M12.3519 10.0857H11.7999V6.47143C11.7999 6.28989 11.6764 6.14286 11.524 6.14286H11.0554C10.8919 6.14286 10.7322 6.20036 10.5963 6.30838L10.0674 6.72812C10.0372 6.75203 10.0113 6.78278 9.99112 6.81862C9.97094 6.85445 9.9569 6.89467 9.94979 6.93697C9.94267 6.97927 9.94263 7.02282 9.94967 7.06514C9.9567 7.10746 9.97067 7.14772 9.99078 7.1836L10.2971 7.73026C10.3172 7.76617 10.3431 7.79702 10.3732 7.82103C10.4033 7.84505 10.437 7.86177 10.4726 7.87024C10.5081 7.87871 10.5447 7.87876 10.5802 7.87038C10.6158 7.86201 10.6496 7.84538 10.6797 7.82144L10.696 7.80871V10.0857H10.144C9.99147 10.0857 9.86796 10.2327 9.86796 10.4143V11.0714C9.86796 11.2529 9.99147 11.4 10.144 11.4H12.3519C12.5044 11.4 12.6279 11.2529 12.6279 11.0714V10.4143C12.6279 10.2327 12.5044 10.0857 12.3519 10.0857ZM21.1839 0.885742H1.312C0.70239 0.885742 0.208008 1.47429 0.208008 2.20002V15.3428C0.208008 16.0685 0.70239 16.6571 1.312 16.6571H21.1839C21.7935 16.6571 22.2879 16.0685 22.2879 15.3428V2.20002C22.2879 1.47429 21.7935 0.885742 21.1839 0.885742ZM1.864 14.6857V12.0571C3.08357 12.0571 4.07199 13.2338 4.07199 14.6857H1.864ZM1.864 5.48572V2.85716H4.07199C4.07199 4.30903 3.08357 5.48572 1.864 5.48572ZM11.248 13.3714C9.41877 13.3714 7.93597 11.3117 7.93597 8.77142C7.93597 6.23075 9.41877 4.17144 11.248 4.17144C13.0771 4.17144 14.5599 6.23075 14.5599 8.77142C14.5599 11.3125 13.0764 13.3714 11.248 13.3714ZM20.6319 14.6857H18.4239C18.4239 13.2338 19.4123 12.0571 20.6319 12.0571V14.6857ZM20.6319 5.48572C19.4123 5.48572 18.4239 4.30903 18.4239 2.85716H20.6319V5.48572Z" fill="#2F553C"/>
</svg>
