<svg width="167" height="133" viewBox="0 0 167 133" fill="none" xmlns="http://www.w3.org/2000/svg">
<path d="M84.7273 110.832C84.7273 110.832 57.4277 45.4777 53.8842 43.8847C50.3412 42.2917 41.0063 46.932 41.0063 46.932C41.0063 46.932 57.0978 122 61.5264 122.353C65.955 122.706 84.7273 110.832 84.7273 110.832Z" fill="#F5F5F5"/>
<path d="M118.242 131.266C118.242 131.266 135.396 40.0393 133.38 36.2256C131.364 32.412 120.962 35.1878 120.962 35.1878C120.962 35.1878 87.9981 129.012 91.5259 131.87C95.0542 134.728 118.242 131.266 118.242 131.266Z" fill="#F5F5F5"/>
<path d="M132.427 49.8036C132.389 49.8036 132.349 49.7993 132.309 49.7904L117.739 46.4467C117.458 46.3822 117.282 46.101 117.346 45.8181C117.411 45.5378 117.682 45.3554 117.975 45.425L132.544 48.7687C132.826 48.8332 133.002 49.1144 132.937 49.3973C132.882 49.6394 132.666 49.8036 132.427 49.8036Z" fill="#241726"/>
<path d="M131.471 59.8345C131.432 59.8345 131.392 59.8303 131.352 59.8214L114.872 55.9996C114.59 55.9343 114.414 55.6527 114.48 55.3703C114.545 55.0899 114.824 54.9148 115.109 54.9784L131.59 58.8001C131.871 58.8654 132.047 59.147 131.982 59.4295C131.926 59.6708 131.71 59.8345 131.471 59.8345Z" fill="#241726"/>
<path d="M130.039 69.8651C130.007 69.8651 129.976 69.8622 129.944 69.8571L110.358 66.275C110.074 66.2228 109.885 65.9493 109.937 65.6651C109.99 65.3797 110.264 65.1952 110.547 65.2435L130.132 68.8256C130.417 68.8778 130.606 69.1509 130.554 69.4355C130.507 69.6878 130.287 69.8651 130.039 69.8651Z" fill="#241726"/>
<path d="M128.128 79.8961C128.09 79.8961 128.051 79.8918 128.012 79.8829L107.949 75.3457C107.667 75.2821 107.49 75.0018 107.554 74.7193C107.617 74.4369 107.895 74.2579 108.181 74.3245L128.244 78.8617C128.526 78.9253 128.703 79.2056 128.639 79.4881C128.585 79.7311 128.367 79.8961 128.128 79.8961Z" fill="#241726"/>
<path d="M125.979 89.4507C125.931 89.4507 125.884 89.4447 125.835 89.4312L104.816 83.46C104.538 83.3803 104.376 83.0906 104.455 82.812C104.534 82.5338 104.819 82.3717 105.103 82.4506L126.122 88.4218C126.4 88.5015 126.562 88.7912 126.483 89.0698C126.417 89.3001 126.207 89.4507 125.979 89.4507Z" fill="#241726"/>
<path d="M52.4201 96.6148C52.2072 96.6148 52.0066 96.4838 51.929 96.2721C51.8289 96.0007 51.968 95.6991 52.239 95.5999L74.9288 87.241C75.1981 87.1388 75.5009 87.2787 75.6014 87.551C75.7015 87.8225 75.5624 88.124 75.2914 88.2237L52.6016 96.5826C52.5418 96.6046 52.4803 96.6148 52.4201 96.6148Z" fill="#241726"/>
<path d="M49.5544 86.1066C49.325 86.1066 49.1155 85.9552 49.0497 85.7236C48.9721 85.4454 49.1337 85.1566 49.4132 85.0777L70.6703 79.1065C70.9477 79.031 71.2374 79.1914 71.3163 79.47C71.3939 79.7482 71.2323 80.037 70.9528 80.1159L49.6956 86.0871C49.6486 86.1006 49.6015 86.1066 49.5544 86.1066Z" fill="#241726"/>
<path d="M47.8828 76.7918C47.6678 76.7918 47.4663 76.6586 47.3895 76.4448C47.2924 76.1717 47.4337 75.8719 47.7059 75.7743L67.0512 68.8472C67.3256 68.7509 67.6241 68.8913 67.7217 69.1636C67.8188 69.4367 67.6776 69.7366 67.4053 69.8341L48.0601 76.7612C48.0015 76.7816 47.9409 76.7918 47.8828 76.7918Z" fill="#241726"/>
<path d="M45.9716 66.7607C45.7341 66.7607 45.5203 66.5991 45.4618 66.3594C45.3944 66.0778 45.5682 65.7945 45.8486 65.7271L63.7607 61.4274C64.0525 61.3638 64.3248 61.5338 64.3931 61.8142C64.4605 62.0958 64.2866 62.3791 64.0063 62.4465L46.0941 66.7462C46.0526 66.7568 46.0114 66.7607 45.9716 66.7607Z" fill="#241726"/>
<path d="M44.2994 57.6842C44.0835 57.6842 43.8808 57.5489 43.8049 57.3343C43.7086 57.0612 43.8519 56.7622 44.1251 56.6659L57.022 52.1287C57.2952 52.0316 57.595 52.1779 57.6904 52.4489C57.7867 52.7221 57.6434 53.0211 57.3702 53.1173L44.4733 57.6545C44.416 57.6749 44.3566 57.6842 44.2994 57.6842Z" fill="#241726"/>
<path d="M131.584 18.5342C131.584 18.5342 150.141 9.55607 159.265 16.9018C168.39 24.2475 166.333 48.1435 166.333 48.1435C166.333 48.1435 151.068 26.3142 137.501 27.1836C137.501 27.1836 158.496 37.8493 158.942 49.5176C159.388 61.1859 148.04 67.392 148.04 67.392C148.04 67.392 155.318 48.1494 134.501 35.5676C134.501 35.5676 151.991 66.347 131.78 72.1637C131.78 72.1637 134.584 44.4401 126.829 35.3182C126.829 35.3182 112.811 47.7944 100.886 64.0856C100.886 64.0856 94.5391 42.5222 119.025 29.9336C119.025 29.9336 94.727 35.7465 87.7346 40.7388C87.7346 40.7388 92.7477 23.2109 101.837 17.9472C110.927 12.6835 123.012 22.3101 123.012 22.3101C123.012 22.3101 112.81 13.505 102.996 13.1776C93.182 12.8502 81.6299 19.6768 81.6299 19.6768C81.6299 19.6768 97.2374 -3.84262 112.73 0.545716C128.222 4.93405 131.584 18.5342 131.584 18.5342Z" fill="#F5F5F5"/>
<path d="M161.429 36.7569C161.394 36.7569 161.362 36.7548 161.335 36.7526C161.047 36.7259 160.834 36.471 160.86 36.1835C160.886 35.8946 161.162 35.694 161.43 35.7085C161.47 35.7136 161.598 35.6084 161.725 35.2203C162.226 33.6859 161.726 30.5563 160.035 29.5418C159.197 29.0405 158.463 29.1274 157.958 29.3187C158.208 30.3001 158.168 31.1191 157.784 31.6C157.444 32.025 156.894 32.1221 156.317 31.8592C155.875 31.6586 155.605 31.2718 155.577 30.7997C155.537 30.1305 155.979 29.37 156.702 28.8263C156.4 28.0485 155.902 27.1354 155.174 26.1777C154.29 25.0131 153.284 24.5843 152.352 24.9639C152.266 24.9999 152.182 25.0407 152.1 25.0877C152.349 26.528 152.043 27.5862 151.702 28.0977C151.404 28.5417 150.993 28.7559 150.595 28.6588C150.35 28.6015 149.923 28.3785 149.819 27.5412C149.69 26.5094 150.144 25.4092 150.926 24.6662C150.707 23.882 150.285 22.9311 149.51 21.8577C148.512 20.4759 147.421 20.0429 146.17 20.5302C145.296 20.872 144.54 21.571 143.975 22.2843C144.593 23.133 144.624 23.8022 144.478 24.2772C144.286 24.9096 143.685 25.3651 143.018 25.3867C142.5 25.3787 142.067 25.1382 141.902 24.698C141.716 24.2026 142.034 23.2835 142.642 22.3458C142.37 22.0757 142.013 21.7716 141.547 21.4369C140.529 20.7053 139.533 20.4606 138.594 20.699C136.57 21.2198 135.335 23.7696 135.323 23.795C135.199 24.0571 134.885 24.1678 134.625 24.0427C134.364 23.9189 134.253 23.6059 134.377 23.3446C134.435 23.2216 135.84 20.3253 138.333 19.6845C139.586 19.3579 140.875 19.6641 142.159 20.5849C142.602 20.9042 142.969 21.2071 143.271 21.4946C143.846 20.8088 144.548 20.1816 145.286 19.7863C146.369 19.2048 148.466 18.6246 150.359 21.2427C151.09 22.2559 151.557 23.1974 151.837 24.044C151.876 24.0266 151.916 24.0092 151.956 23.9927C152.615 23.7234 154.329 23.3357 156.008 25.5424C156.717 26.475 157.265 27.4348 157.626 28.3225C158.587 27.9705 159.631 28.0769 160.573 28.6427C162.786 29.9702 163.332 33.6765 162.721 35.5443C162.377 36.6033 161.757 36.7569 161.429 36.7569ZM157.025 29.9434C156.757 30.2318 156.611 30.5372 156.623 30.7378C156.628 30.8103 156.649 30.8595 156.752 30.9058C156.877 30.9622 156.943 30.9609 156.956 30.9571C156.968 30.9499 157.021 30.8816 157.05 30.7052C157.083 30.5041 157.076 30.2463 157.025 29.9434ZM151.143 26.0963C150.917 26.5128 150.805 26.9806 150.859 27.4115C150.861 27.4289 150.863 27.4441 150.866 27.4594C150.934 27.3428 151.01 27.1646 151.068 26.9097C151.103 26.7554 151.148 26.478 151.143 26.0963ZM143.331 23.2322C143.029 23.7564 142.871 24.1903 142.891 24.3591C142.902 24.3396 143.028 24.3591 143.181 24.2917C143.288 24.2446 143.47 24.128 143.497 23.868C143.507 23.7696 143.5 23.5558 143.331 23.2322Z" fill="#241726"/>
<path d="M152.203 55.3923C152.06 55.3923 151.917 55.3842 151.774 55.3685C151.486 55.3367 151.279 55.0767 151.311 54.7892C151.343 54.5025 151.588 54.2947 151.89 54.3265C152.896 54.441 153.923 54.0071 154.569 53.2017C155.387 52.1805 155.515 50.6821 154.931 48.983C154.528 47.8104 153.854 47.1602 152.929 47.0516C152.726 47.03 152.527 47.0321 152.338 47.0567C152.18 47.3362 151.997 47.5682 151.803 47.7506C151.321 48.1997 150.752 48.3443 150.313 48.1263C150.028 47.9838 149.883 47.6925 149.945 47.3833C150.044 46.8879 150.755 46.3853 151.604 46.1406C151.862 45.4264 152.029 44.1396 151.22 42.2103C150.398 40.2505 148.617 39.9803 147.226 40.3837C147.096 40.4206 146.973 40.4634 146.857 40.5096C146.806 41.3706 146.569 42.0038 146.233 42.3622C145.968 42.6446 145.635 42.7502 145.32 42.6548C145.113 42.5925 144.75 42.3868 144.638 41.709C144.527 41.0478 144.992 40.3569 145.811 39.8594C145.776 39.1397 145.605 38.2054 145.177 37.0539C144.687 35.7336 143.873 35.1238 142.837 35.2722C142.565 35.3121 142.313 35.396 142.086 35.5025C142.324 36.2078 142.249 36.749 142.011 37.0891C141.748 37.4628 141.192 37.7249 140.426 37.341C140.038 37.1476 139.85 36.7566 139.934 36.3206C140.008 35.9338 140.309 35.5008 140.748 35.1284C140.474 34.6844 140.049 34.1457 139.401 33.5287C137.017 31.2575 134.652 32.5625 134.629 32.5778C134.381 32.7169 134.058 32.6329 133.914 32.3823C133.77 32.1316 133.857 31.811 134.109 31.6668C134.14 31.6502 137.18 29.9657 140.123 32.7691C140.808 33.4209 141.297 34.0219 141.631 34.5593C142.02 34.376 142.45 34.2484 142.892 34.2115C143.736 34.1441 145.298 34.3714 146.16 36.6904C146.536 37.7045 146.746 38.6185 146.827 39.4086C146.863 39.3984 146.899 39.387 146.935 39.3768C148.673 38.8721 151.097 39.2067 152.186 41.8057C152.901 43.509 152.981 44.9242 152.74 45.9896C154.199 46.0244 155.349 46.9753 155.922 48.6433C156.627 50.6935 156.437 52.5448 155.387 53.857C154.61 54.8265 153.421 55.3923 152.203 55.3923Z" fill="#241726"/>
<path d="M134.626 66.6715C134.435 66.6715 134.25 66.5651 134.158 66.3819C134.029 66.1231 134.133 65.8076 134.392 65.6787C135.547 65.1014 136.249 64.2541 136.477 63.1598C136.699 62.1017 136.448 60.82 135.83 59.6431C134.221 60.652 133.49 60.1753 133.189 59.775C132.638 59.0434 132.996 57.8189 133.661 57.293C134.181 56.8804 135.015 56.7782 135.8 57.7227C135.907 57.8507 136.013 57.9869 136.116 58.129C137.323 57.0759 137.706 55.8701 137.256 54.5384C136.748 53.0341 135.364 51.7893 134.388 51.168C133.899 51.4127 133.509 51.3923 133.321 51.3563C132.843 51.2693 132.504 50.9245 132.497 50.5182C132.491 50.2234 132.68 49.8366 133.23 49.7137C133.499 49.6551 133.883 49.7425 134.325 49.9431C134.699 49.6021 135.189 48.9524 135.682 47.7199C136.225 46.3585 136.145 45.1981 135.455 44.4508C135.281 44.2633 135.079 44.1149 134.87 44.0067C134.662 44.3146 134.426 44.5759 134.176 44.7795C133.652 45.2053 133.125 45.3232 132.733 45.0997C132.532 44.986 132.21 44.6913 132.31 43.9893C132.39 43.4282 132.769 43.0029 133.349 42.8213C133.662 42.7251 134.005 42.7026 134.348 42.7488C134.584 42.1389 134.744 41.2339 134.385 40.1142C134.08 39.1655 133.584 38.5208 132.913 38.1963C131.826 37.67 130.587 38.1276 130.575 38.1319C130.312 38.2354 130.003 38.0992 129.9 37.8291C129.797 37.5589 129.931 37.2569 130.2 37.1534C130.267 37.1267 131.856 36.5291 133.356 37.2476C134.303 37.7001 134.984 38.5564 135.381 39.7931C135.772 41.0099 135.685 42.1491 135.345 43.0703C135.667 43.2382 135.969 43.4643 136.224 43.7395C136.791 44.3537 137.602 45.7376 136.653 48.1088C136.198 49.248 135.717 49.997 135.262 50.4864C136.329 51.2252 137.473 52.4106 138.066 53.7372C138.936 55.689 138.443 57.5467 136.683 59.0217C137.376 60.2763 137.823 61.8413 137.503 63.3736C137.209 64.7778 136.295 65.8988 134.86 66.616C134.785 66.6541 134.705 66.6715 134.626 66.6715ZM134.488 58.0446C134.4 58.0446 134.344 58.0887 134.311 58.1141C133.988 58.3711 133.893 58.9687 134.026 59.1447C134.098 59.2431 134.491 59.2491 135.276 58.7537C135.187 58.632 135.092 58.5111 134.995 58.3945C134.763 58.1171 134.6 58.0446 134.488 58.0446ZM133.679 43.818C133.672 43.8201 133.667 43.821 133.661 43.8231C133.448 43.8897 133.383 44.0012 133.361 44.078C133.448 44.0237 133.559 43.9389 133.679 43.818Z" fill="#241726"/>
<path d="M101.717 55.8799C101.454 55.8799 101.227 55.6814 101.197 55.4134C100.744 51.2651 102.691 49.8884 103.892 49.4363C104.387 49.2501 104.912 49.1632 105.41 49.153C105.29 48.1907 105.362 46.9781 105.65 45.6803C105.967 44.2536 107.13 43.3867 108.841 43.3006C109.278 43.2752 109.744 43.3099 110.2 43.3888C110.357 42.1576 110.836 40.6253 111.615 38.9712C112.63 36.8129 114.207 36.312 115.35 36.2721C115.81 36.2556 116.267 36.3141 116.701 36.4214C116.673 35.3917 117.098 34.4285 117.936 33.6846C120.095 31.7612 123.006 32.9076 124.244 33.783C124.479 33.9497 124.536 34.2762 124.368 34.5129C124.202 34.7491 123.874 34.8055 123.639 34.6389C123.52 34.5562 120.71 32.6205 118.632 34.4688C117.728 35.2721 117.674 36.181 117.798 36.8226C118.475 37.1551 119.006 37.5962 119.245 38.0233C119.503 38.4869 119.34 38.8228 119.258 38.9466C119.08 39.2147 118.778 39.3478 118.46 39.2965C117.875 39.2083 117.249 38.5034 116.924 37.5882C116.568 37.4529 116.162 37.3515 115.725 37.3239C114.754 37.2675 113.427 37.578 112.562 39.417C111.716 41.2152 111.338 42.6513 111.227 43.6501C112.017 43.9262 112.645 44.3482 112.815 44.8618C112.952 45.2761 112.79 45.6867 112.379 45.9602C111.511 46.5375 110.937 46.1833 110.729 46.0052C110.372 45.6973 110.18 45.1557 110.149 44.4432C109.697 44.3533 109.192 44.3121 108.688 44.3613C107.553 44.475 106.876 44.9949 106.673 45.9068C106.332 47.4391 106.358 48.5465 106.486 49.2569C107.04 49.3829 107.478 49.6119 107.679 49.8999C107.89 50.2006 107.874 50.5733 107.637 50.8486C107.288 51.2549 106.825 51.3715 106.405 51.1607C106.083 51 105.832 50.6654 105.655 50.1984C105.188 50.1912 104.626 50.2476 104.085 50.4902C102.606 51.1514 101.967 52.8148 102.238 55.2984C102.27 55.5873 102.062 55.8451 101.775 55.8769C101.755 55.8786 101.736 55.8799 101.717 55.8799ZM111.231 44.7812C111.27 44.9983 111.335 45.1434 111.414 45.2108C111.471 45.2643 111.624 45.1977 111.762 45.1116C111.667 45.0123 111.482 44.8949 111.231 44.7812Z" fill="#241726"/>
<path d="M94.1764 35.2737C94.1509 35.2737 94.125 35.2716 94.0987 35.2686C93.8133 35.2258 93.6148 34.9595 93.6564 34.6727C94.5275 28.7673 98.1732 28.7109 99.2653 28.8339C99.4473 28.8543 99.6275 28.884 99.8035 28.9238C99.382 27.0132 99.65 24.7768 101.511 23.1728C103.081 21.8186 104.494 22.0328 105.399 22.4523C105.943 22.7042 106.435 23.0897 106.858 23.5422C107.291 22.6579 107.948 21.7164 108.889 20.7757C109.943 19.7214 111.214 19.4071 112.56 19.8668C113.986 20.3508 115.317 21.6765 116.194 23.0057C116.877 22.1715 117.893 21.6999 119.091 21.6999C123.104 21.6999 124.27 26.8745 124.317 27.0959C124.379 27.3784 124.2 27.6566 123.917 27.7181C123.63 27.7825 123.355 27.6002 123.294 27.3181C123.283 27.2719 122.258 22.7483 119.091 22.7483C117.809 22.7483 117.127 23.4074 116.771 24.0122C117.016 24.5198 117.176 24.9936 117.227 25.3825C117.318 26.0763 117.057 26.4093 116.823 26.5658C116.467 26.8033 116.075 26.8092 115.773 26.5759C115.203 26.1378 115.245 25.0521 115.524 24.228C115.549 24.1572 115.574 24.0889 115.601 24.0202C115.072 23.1033 114.228 22.0256 113.136 21.3139C111.81 20.4479 110.63 20.5166 109.63 21.5166C108.562 22.5842 107.936 23.6067 107.592 24.4838C108.212 25.4406 108.565 26.4818 108.56 27.1684C108.555 27.8695 108.202 28.1307 107.991 28.2245C107.465 28.4577 106.921 28.2847 106.569 27.7711C106.143 27.1498 106.004 26.0119 106.423 24.6373C106.181 24.3273 105.899 24.0334 105.578 23.7848C104.468 22.9239 103.329 22.9875 102.194 23.9668C100.742 25.2183 100.587 26.855 100.714 28.0078C100.768 28.4951 100.876 28.9493 101.008 29.3535C102.017 29.8662 102.702 30.6623 102.645 31.4219C102.595 32.0492 102.179 32.1764 102.053 32.1997C101.321 32.3329 100.702 31.2713 100.391 30.6254C100.313 30.4659 100.24 30.3001 100.173 30.1279C99.8659 30.0083 99.5211 29.9163 99.1483 29.8751C96.8351 29.6181 95.1955 31.4185 94.6942 34.8259C94.6556 35.0863 94.4312 35.2737 94.1764 35.2737ZM107.231 26.0089C107.207 26.3804 107.242 26.6815 107.305 26.8911C107.394 27.1888 107.514 27.2728 107.533 27.277C107.597 27.1341 107.497 26.6251 107.231 26.0089Z" fill="#241726"/>
<path d="M127.819 20.997C127.796 20.997 127.774 20.9962 127.75 20.9928C127.463 20.955 127.262 20.6921 127.299 20.4041C127.305 20.357 127.905 15.6192 126.229 13.8239C125.787 13.3502 125.238 13.1381 124.511 13.1844C124.221 13.2018 123.959 13.2387 123.721 13.29C123.931 14.3689 123.885 15.4343 123.538 16.2673C123.2 17.0778 122.593 17.5608 121.83 17.6274C121.454 17.6558 121.087 17.4667 120.834 17.0981C120.413 16.4848 120.263 15.2999 120.79 14.2201C121.017 13.7544 121.495 13.0737 122.455 12.6152C122.225 11.9336 121.874 11.2623 121.398 10.6901C120.644 9.78422 119.293 8.79985 117.128 9.26765C116.206 9.46613 115.463 9.68116 114.867 9.89831C114.964 10.6914 114.911 11.4077 114.699 11.9256C114.439 12.555 113.938 12.9155 113.323 12.9155C112.385 12.9155 111.647 12.3709 111.567 11.6219C111.517 11.1511 111.699 10.1706 113.675 9.2545C113.401 8.15519 112.83 6.93925 111.952 6.07023C110.868 4.99764 109.623 4.74996 108.252 5.33142C106.114 6.23733 105.126 7.62207 104.669 8.68109C104.845 9.76513 104.756 10.7945 104.585 11.3382C104.411 11.8887 104.047 11.9256 103.894 11.9154C103.653 11.898 103.344 11.7453 103.239 11.1121C103.156 10.6176 103.187 9.65656 103.586 8.57379C103.453 7.92574 103.202 7.27684 102.773 6.77342C102.124 6.01213 101.152 5.7233 99.8995 5.90652C95.825 6.51046 95.3869 11.032 95.3703 11.2237C95.3457 11.5125 95.0755 11.7262 94.8041 11.7017C94.5157 11.6771 94.3015 11.4243 94.3261 11.1367C94.3304 11.0816 94.8431 5.59649 99.7455 4.87083C101.78 4.57013 102.953 5.36832 103.571 6.09398C103.861 6.43497 104.088 6.82261 104.262 7.23189C104.96 6.16566 106.081 5.11342 107.843 4.36698C109.594 3.62478 111.315 3.96576 112.689 5.32506C113.66 6.28526 114.329 7.60044 114.665 8.8571C115.284 8.63995 116.024 8.43341 116.908 8.24213C118.994 7.79469 120.876 8.42408 122.205 10.0209C122.747 10.6727 123.17 11.4578 123.451 12.2768C123.75 12.2093 124.082 12.161 124.447 12.1385C125.476 12.077 126.336 12.4023 126.996 13.1097C129.007 15.2663 128.366 20.3265 128.339 20.5415C128.303 20.8053 128.079 20.997 127.819 20.997ZM122.715 13.6615C121.875 14.1416 121.621 14.8558 121.544 15.2324C121.397 15.9653 121.641 16.5222 121.775 16.5887C122.105 16.5518 122.384 16.3093 122.571 15.8639C122.802 15.3105 122.854 14.514 122.715 13.6615ZM113.853 10.3351C112.848 10.853 112.589 11.3195 112.609 11.5112C112.628 11.6821 112.906 11.8675 113.324 11.8675C113.41 11.8675 113.59 11.8675 113.73 11.5278C113.847 11.2428 113.888 10.8254 113.853 10.3351Z" fill="#241726"/>
<path d="M38.201 30.0356C38.201 30.0356 46.9115 11.3511 58.6252 11.279C70.3389 11.2073 83.844 31.0276 83.844 31.0276C83.844 31.0276 58.2193 23.7535 48.253 33.0001C48.253 33.0001 71.2652 28.0006 78.9837 36.7625C86.7022 45.5243 81.8278 57.5047 81.8278 57.5047C81.8278 57.5047 75.3104 37.9916 51.2248 41.3934C51.2248 41.3934 84.23 54.1983 72.2402 71.4773C72.2402 71.4773 56.8957 48.2174 45.1209 46.0476C45.1209 46.0476 42.1394 64.5752 43.1903 84.7368C43.1903 84.7368 24.6454 72.0341 35.6695 46.8051C35.6695 46.8051 20.5103 66.6635 18.2447 74.9512C18.2447 74.9512 11.055 58.1982 14.7741 48.3748C18.4932 38.5514 33.9429 38.3771 33.9429 38.3771C33.9429 38.3771 20.4721 37.9988 12.6586 43.9462C4.84512 49.894 0.204858 62.4847 0.204858 62.4847C0.204858 62.4847 -2.55954 34.3934 12.2214 28.0057C27.0022 21.6181 38.201 30.0356 38.201 30.0356Z" fill="#F5F5F5"/>
<path d="M43.9166 32.3957C43.6812 32.3957 43.4674 32.235 43.4089 31.9958C43.3762 31.8639 42.6353 28.7318 44.1621 26.6591C44.9319 25.6149 46.1211 25.0369 47.6975 24.9406C48.243 24.9058 48.718 24.9109 49.1345 24.9427C49.1468 24.047 49.2939 23.1177 49.6167 22.345C50.0887 21.2096 51.3462 19.4394 54.469 20.2681C55.6756 20.5917 56.6328 21.0264 57.3848 21.5057C57.4043 21.4667 57.4238 21.4281 57.4454 21.389C57.7873 20.7639 58.8773 19.3842 61.564 20.031C62.7032 20.3063 63.7351 20.7037 64.574 21.1643C65.0969 20.2829 65.974 19.707 67.0623 19.5492C69.6036 19.1785 72.3794 21.7088 73.0877 23.5419C73.5309 24.6891 73.0169 25.1917 72.7756 25.3545C72.5393 25.5174 72.2106 25.4546 72.0486 25.2133C71.8858 24.9737 71.9494 24.6484 72.1899 24.4864C72.2136 24.4698 72.2543 24.2938 72.1089 23.9193C71.5274 22.4129 69.1489 20.2991 67.2112 20.5866C66.2471 20.7257 65.731 21.258 65.4608 21.7258C66.2756 22.3285 66.7607 22.9888 66.7667 23.6038C66.7726 24.1483 66.4083 24.5699 65.7933 24.7315C65.3255 24.8532 64.87 24.7264 64.5498 24.3782C64.0964 23.8837 63.9594 23.0147 64.1762 22.1368C63.4505 21.7254 62.4873 21.3322 61.3176 21.0497C59.896 20.7049 58.8488 21.0048 58.3649 21.8912C58.32 21.973 58.281 22.0591 58.247 22.1482C59.3493 23.1063 59.7811 24.1203 59.8396 24.7323C59.8909 25.2655 59.7026 25.6892 59.3362 25.8664C59.1101 25.9771 58.6415 26.0751 58.0282 25.4907C57.2771 24.7722 56.934 23.633 57.0714 22.5626C56.4051 22.0939 55.478 21.6231 54.1984 21.2813C52.5486 20.8411 51.4298 21.1944 50.7707 22.3624C50.3093 23.1801 50.1659 24.1997 50.1782 25.1094C51.1923 25.3757 51.6397 25.8762 51.8272 26.3355C52.0778 26.9467 51.901 27.6795 51.3971 28.1172C51.0023 28.4599 50.5027 28.5286 50.0955 28.289C49.6392 28.0231 49.3054 27.1099 49.1837 25.9996C48.8041 25.9606 48.3363 25.9525 47.7612 25.9865C46.5113 26.062 45.585 26.4971 45.0078 27.2779C43.7702 28.9523 44.4204 31.7201 44.4276 31.7477C44.495 32.0293 44.322 32.3126 44.0417 32.38C43.9997 32.3906 43.9577 32.3957 43.9166 32.3957ZM50.2779 26.2515C50.375 26.847 50.5264 27.2843 50.6486 27.4017C50.6456 27.3801 50.755 27.3156 50.8305 27.1672C50.8839 27.0637 50.9514 26.8572 50.8089 26.6379C50.7546 26.5565 50.6134 26.3949 50.2779 26.2515ZM58.1423 23.5342C58.2305 23.9999 58.4392 24.4329 58.7534 24.7336C58.7657 24.7451 58.7772 24.7561 58.7882 24.7663C58.7678 24.6331 58.7144 24.4469 58.5978 24.2115C58.5274 24.0707 58.387 23.8281 58.1423 23.5342ZM65.1317 22.7992C65.1063 23.1924 65.1868 23.5219 65.323 23.6691C65.3722 23.7234 65.4193 23.748 65.5278 23.7183C65.6597 23.6835 65.7119 23.6407 65.7191 23.6284C65.7234 23.6152 65.7212 23.5291 65.633 23.3743C65.5321 23.1987 65.3641 23.0032 65.1317 22.7992Z" fill="#241726"/>
<path d="M76.8438 45.909C76.672 45.909 76.5041 45.8242 76.4036 45.6694C76.2458 45.426 76.3166 45.1015 76.5592 44.9446C77.4109 44.3949 77.9338 43.4114 77.9245 42.3787C77.913 41.0707 77.0669 39.8281 75.5409 38.8802C74.4857 38.224 73.5522 38.1473 72.7685 38.649C72.5963 38.7576 72.4449 38.8874 72.313 39.0256C72.3673 39.342 72.3724 39.6368 72.3367 39.9006C72.2485 40.5546 71.8978 41.0266 71.4206 41.1339C71.1085 41.2056 70.8129 41.0686 70.6653 40.7908C70.4299 40.3438 70.6632 39.5045 71.1657 38.7796C70.9151 38.062 70.2314 36.9598 68.3848 35.9762C66.5157 34.9774 64.9609 35.8914 64.1352 37.0827C64.0571 37.1943 63.9888 37.305 63.9282 37.4144C64.4329 38.1133 64.6496 38.7542 64.6148 39.2445C64.5873 39.6304 64.3968 39.9239 64.0919 40.049C63.8921 40.13 63.4799 40.1983 62.9671 39.7462C62.4637 39.303 62.387 38.4738 62.7072 37.5722C62.2249 37.0361 61.5014 36.4199 60.4441 35.7977C59.2269 35.0843 58.2136 35.1191 57.5037 35.8939C57.3183 36.0975 57.175 36.3219 57.0668 36.5479C57.6962 36.9449 57.9808 37.4119 58.0105 37.8262C58.0432 38.2805 57.7794 38.8343 56.9422 39.0218C56.5172 39.1181 56.1266 38.9315 55.9154 38.5417C55.7292 38.1948 55.6893 37.6697 55.7924 37.1035C55.3 36.9326 54.6294 36.7833 53.7384 36.7133C50.457 36.483 49.448 38.9662 49.4387 38.9917C49.3331 39.261 49.0281 39.3938 48.7609 39.2924C48.4908 39.1881 48.3568 38.8852 48.4602 38.6151C48.4734 38.5833 49.7797 35.3439 53.8181 35.6696C54.7609 35.7421 55.5192 35.8978 56.1177 36.1047C56.303 35.7158 56.5558 35.3464 56.8751 35.0381C57.4901 34.4473 58.8392 33.6389 60.9742 34.8947C61.9077 35.4423 62.6478 36.0186 63.2097 36.5793C63.2301 36.5488 63.2517 36.517 63.2734 36.486C64.3052 34.9957 66.391 33.7246 68.8781 35.0512C70.5075 35.9202 71.4643 36.9653 71.9504 37.9437C73.104 37.0514 74.5943 37.0594 76.0936 37.9899C77.9359 39.1342 78.9585 40.6899 78.9729 42.3694C78.9852 43.7583 78.2778 45.0816 77.1284 45.8246C77.0402 45.8823 76.9422 45.909 76.8438 45.909ZM56.7831 37.629C56.7772 37.7745 56.7861 37.8928 56.8086 37.973C56.9142 37.9369 56.9612 37.8983 56.9693 37.8839C56.9676 37.8339 56.9112 37.7414 56.7831 37.629Z" fill="#241726"/>
<path d="M70.6483 65.5381C70.5758 65.5381 70.5028 65.5237 70.4333 65.4918C70.1695 65.3731 70.0516 65.0631 70.1703 64.7988C70.7005 63.6219 70.7085 62.5213 70.1937 61.5289C69.6962 60.5687 68.6931 59.7336 67.47 59.2128C66.8601 61.0132 65.989 61.1044 65.5059 60.9835C64.6165 60.7646 64.1212 59.5894 64.3031 58.7615C64.4465 58.1169 65.0279 57.5129 66.2333 57.7432C66.3961 57.775 66.5636 57.8136 66.7346 57.859C67.0047 56.2809 66.5403 55.104 65.3498 54.3554C64.0041 53.511 62.1422 53.4211 60.9967 53.5559C60.7715 54.0534 60.4564 54.2837 60.2876 54.3757C59.8639 54.6111 59.3838 54.5577 59.12 54.2477C58.9295 54.0225 58.8312 53.603 59.1802 53.1607C59.349 52.9469 59.7031 52.7696 60.1739 52.6458C60.2486 52.1445 60.2172 51.3327 59.8198 50.0655C59.3817 48.6663 58.5864 47.8176 57.5804 47.6756C57.3277 47.6395 57.0757 47.6531 56.8454 47.7002C56.8794 48.0696 56.8607 48.4216 56.7954 48.7358C56.6593 49.3983 56.3255 49.8207 55.8806 49.8975C55.6562 49.9302 55.2173 49.9119 54.85 49.3029C54.5582 48.8177 54.5828 48.249 54.9187 47.7421C55.0989 47.4699 55.3504 47.2366 55.6465 47.0542C55.445 46.4329 54.9976 45.6305 54.0098 44.9888C53.1739 44.4455 52.3803 44.258 51.6504 44.4349C50.4879 44.7165 49.8132 45.8463 49.8059 45.8574C49.6617 46.1101 49.3394 46.1941 49.0913 46.052C48.8394 45.9087 48.7524 45.5885 48.8971 45.3374C48.9318 45.2751 49.7886 43.8063 51.4036 43.4162C52.4181 43.1697 53.4907 43.4009 54.5807 44.11C55.6524 44.8051 56.3043 45.7437 56.6236 46.6729C56.9799 46.5992 57.3556 46.583 57.7272 46.6373C58.555 46.7539 60.0577 47.3146 60.8211 49.7516C61.1875 50.9217 61.2876 51.8069 61.2448 52.4732C62.5375 52.3739 64.175 52.5673 65.4741 53.2226C67.3796 54.1845 68.1719 55.9357 67.7389 58.1907C69.0685 58.7259 70.404 59.6552 71.1237 61.0463C71.7841 62.3195 71.7841 63.7657 71.1259 65.228C71.0393 65.4231 70.8476 65.5381 70.6483 65.5381ZM65.7281 58.7386C65.3821 58.7386 65.3435 58.9125 65.3269 58.9863C65.2387 59.3897 65.5428 59.9134 65.7566 59.966C65.8783 60.011 66.1832 59.7523 66.478 58.8739C66.3317 58.8349 66.1832 58.801 66.0327 58.7726C65.9114 58.748 65.8113 58.7386 65.7281 58.7386ZM55.8034 48.3062C55.7991 48.3113 55.7962 48.3164 55.7932 48.3206C55.6694 48.5081 55.6897 48.6358 55.7207 48.7095C55.7542 48.6103 55.7868 48.4763 55.8034 48.3062Z" fill="#241726"/>
<path d="M38.3227 77.967C38.1896 77.967 38.0568 77.9169 37.9554 77.8164C34.9832 74.8871 35.6228 72.5896 36.2675 71.481C36.5334 71.0234 36.8846 70.6243 37.2654 70.3019C36.5631 69.6327 35.8531 68.647 35.2564 67.4587C34.6015 66.1528 34.9544 64.7452 36.2255 63.5979C36.5491 63.3061 36.9316 63.0351 37.3358 62.8069C36.6789 61.7539 36.0821 60.2644 35.6398 58.4907C35.0634 56.1746 35.9693 54.7899 36.8311 54.0366C37.1751 53.7368 37.5661 53.4912 37.9724 53.2999C37.2989 52.52 37.0207 51.5038 37.1997 50.3986C37.6603 47.5409 40.6397 46.5921 42.1504 46.4899C42.4286 46.4602 42.6877 46.6884 42.7081 46.9759C42.7285 47.2648 42.5105 47.5154 42.2229 47.5358C42.0779 47.546 38.6777 47.8204 38.2332 50.5665C38.0407 51.76 38.573 52.5001 39.0747 52.9174C39.8105 52.7486 40.5023 52.7545 40.9561 52.9348C41.4493 53.1303 41.5354 53.4938 41.5498 53.6409C41.5804 53.9611 41.4319 54.2508 41.1529 54.4166C40.641 54.7173 39.7117 54.5672 38.8817 54.0634C38.5212 54.183 38.1416 54.3624 37.7854 54.6173C36.9995 55.1801 36.1661 56.2649 36.6577 58.2375C37.1378 60.166 37.7527 61.5176 38.2973 62.3625C39.0844 62.0779 39.8385 62.0075 40.2932 62.298C40.6617 62.5325 40.7949 62.9541 40.6494 63.4249C40.3445 64.4165 39.6986 64.5004 39.3996 64.5017C38.9275 64.4886 38.4372 64.1904 37.9627 63.6581C37.5551 63.874 37.1378 64.1607 36.7785 64.5191C35.971 65.3224 35.7746 66.1537 36.1941 66.9887C36.8973 68.3909 37.6166 69.234 38.1654 69.7039C38.6731 69.4512 39.1612 69.354 39.495 69.4469C39.8491 69.547 40.0722 69.846 40.0629 70.2095C40.0497 70.7447 39.766 71.1264 39.3046 71.2299C38.9496 71.3088 38.5462 71.2074 38.1162 70.9585C37.7383 71.2418 37.3494 71.6464 37.0826 72.1765C36.3548 73.6236 36.9104 75.3158 38.6904 77.07C38.8974 77.2736 38.8995 77.6052 38.6968 77.8109C38.5929 77.9148 38.4576 77.967 38.3227 77.967ZM39.0145 63.2357C39.1824 63.3791 39.3236 63.4508 39.428 63.4529C39.5005 63.4571 39.5807 63.3125 39.635 63.156C39.4997 63.1424 39.2795 63.1662 39.0145 63.2357Z" fill="#241726"/>
<path d="M19.4557 66.7616C19.2775 66.7616 19.1037 66.6704 19.0053 66.5058C15.9503 61.3791 18.7372 59.0321 19.6643 58.4358C19.8179 58.3365 19.9756 58.2462 20.1364 58.1664C18.6032 56.9513 17.3974 55.0488 17.8262 52.6313C18.1884 50.5862 19.4175 49.8618 20.3862 49.6141C20.9664 49.4648 21.5907 49.4525 22.2048 49.5374C21.9817 48.5784 21.8956 47.4329 22.0309 46.1096C22.1815 44.6278 22.9674 43.5815 24.3029 43.084C25.7114 42.5589 27.5813 42.7451 29.1009 43.2223C29.1039 42.1433 29.5942 41.1352 30.5217 40.379C33.6364 37.8428 37.8059 41.1178 37.9819 41.259C38.2084 41.4393 38.2449 41.7688 38.0646 41.9949C37.8857 42.2201 37.5561 42.2599 37.3288 42.0776C37.291 42.0479 33.6402 39.1893 31.1838 41.1912C30.1909 42.0008 30.0785 42.9423 30.1837 43.6375C30.6956 43.875 31.1193 44.1409 31.4047 44.4102C31.9132 44.8912 31.9205 45.3127 31.8378 45.5829C31.7118 45.9922 31.4098 46.2441 31.0311 46.2543C31.023 46.2551 31.0137 46.2551 31.0056 46.2551C30.2974 46.2551 29.6544 45.3984 29.3546 44.593C29.3291 44.5222 29.3045 44.4526 29.2829 44.3822C28.293 44.0065 26.9587 43.7096 25.6618 43.8419C24.0866 44.0107 23.2155 44.8089 23.0721 46.2153C22.9194 47.7166 23.081 48.905 23.369 49.8037C24.4547 50.1528 25.3852 50.7372 25.8149 51.2724C26.253 51.8191 26.1436 52.2445 26.0401 52.4493C25.7809 52.9608 25.2478 53.1729 24.6532 52.9969C23.9297 52.7852 23.1026 51.9909 22.5594 50.6604C22.1747 50.5722 21.7612 50.5272 21.3638 50.5336C19.9625 50.5705 19.1193 51.3369 18.8572 52.8128C18.5226 54.7014 19.4374 56.0666 20.2645 56.8801C20.6135 57.2228 20.9829 57.5074 21.3421 57.7368C22.4431 57.4972 23.4822 57.6825 23.9161 58.3068C24.2753 58.8238 24.0327 59.1852 23.9488 59.2831C23.475 59.8421 22.3142 59.4184 21.6662 59.1131C21.5054 59.0384 21.3438 58.9553 21.1831 58.8654C20.8701 58.9655 20.5444 59.1131 20.2301 59.3158C18.2597 60.5852 18.1413 63.0094 19.9048 65.9685C20.0533 66.217 19.9714 66.5385 19.7224 66.6869C19.6402 66.7378 19.5477 66.7616 19.4557 66.7616ZM24.0544 51.2143C24.2681 51.5142 24.4823 51.7233 24.6613 51.8458C24.917 52.0218 25.0676 52.0138 25.0871 52.0044C25.0451 51.8543 24.6481 51.5235 24.0544 51.2143Z" fill="#241726"/>
<path d="M5.08513 48.0677C4.91846 48.0677 4.75432 47.988 4.65338 47.8395C4.62157 47.7946 1.55309 43.2184 4.89386 39.5587C6.28581 38.0314 7.69812 37.919 8.63075 38.09C9.07183 38.171 9.4934 38.3283 9.8874 38.5361C9.75423 37.2689 9.95908 35.745 10.8514 34.0532C11.7387 32.3716 13.2854 31.5424 15.2135 31.7341C16.5728 31.8652 17.9214 32.4619 18.9758 33.2232C19.3198 32.6642 19.7617 32.0348 20.3266 31.3287C21.6621 29.6615 23.5253 28.9604 25.5555 29.3604C26.3877 29.5232 27.2117 29.8651 27.9454 30.3214C28.1359 30.0788 28.3619 29.832 28.6312 29.5847C29.3917 28.8828 30.2628 28.5931 31.2209 28.7272C34.1431 29.1284 36.8438 33.4548 36.9575 33.6388C37.1089 33.8857 37.0321 34.208 36.7866 34.3603C36.5402 34.5096 36.2174 34.4362 36.0651 34.1894C36.0406 34.1486 33.5115 30.0983 31.0775 29.765C30.4278 29.6768 29.8667 29.8714 29.3416 30.3545C29.1279 30.5521 28.9476 30.7464 28.7962 30.936C29.6406 31.6391 30.2794 32.4946 30.5359 33.3598C30.7857 34.2021 30.6208 34.9595 30.0724 35.4927C29.798 35.7577 29.3938 35.8387 28.9659 35.7128C28.2525 35.5037 27.3865 34.6801 27.112 33.5091C26.9933 33.0044 26.9339 32.1756 27.3886 31.2133C26.7795 30.8308 26.0836 30.5318 25.3537 30.3893C24.1971 30.1611 22.5257 30.2574 21.1452 31.9839C20.5556 32.7211 20.1167 33.3564 19.7922 33.9018C20.3686 34.4544 20.7787 35.0439 20.9416 35.5805C21.1392 36.2302 20.9785 36.8269 20.5005 37.2158C19.7736 37.8075 18.8579 37.8516 18.3222 37.3236C17.9855 36.9898 17.5088 36.1148 18.4592 34.1558C17.5533 33.4773 16.3425 32.8958 15.1125 32.777C13.5988 32.6307 12.4728 33.2241 11.7781 34.5426C10.6941 36.5949 10.8026 38.2927 11.1178 39.4022C11.9376 40.1321 12.5212 40.9845 12.7307 41.5134C12.9444 42.0529 12.6828 42.3116 12.5598 42.3986C12.3642 42.5355 12.0275 42.6157 11.5444 42.1899C11.1678 41.8595 10.5855 41.0948 10.211 40.0036C9.69698 39.585 9.09219 39.2402 8.44117 39.1201C7.44746 38.939 6.52331 39.3258 5.6666 40.2644C2.87973 43.3185 5.48974 47.2076 5.51604 47.2479C5.67974 47.4863 5.61952 47.812 5.37989 47.9757C5.29083 48.038 5.18735 48.0677 5.08513 48.0677ZM19.282 34.8807C18.8295 35.9185 18.9236 36.4427 19.061 36.5776C19.1828 36.6993 19.5165 36.6679 19.8389 36.4024C19.9063 36.3481 20.0458 36.2344 19.939 35.8824C19.8499 35.5889 19.6188 35.239 19.282 34.8807ZM28.2521 31.8584C27.9039 32.7622 28.1588 33.4756 28.3369 33.8153C28.6868 34.4794 29.2466 34.7373 29.3726 34.722C29.605 34.4845 29.6695 34.1202 29.5312 33.6575C29.3603 33.0824 28.8976 32.4327 28.2521 31.8584Z" fill="#241726"/>
<path d="M125.377 100.056C125.186 100.056 125 99.95 124.908 99.7668C124.395 98.7421 122.347 97.7904 121.601 97.5088C121.33 97.4074 121.193 97.1054 121.295 96.8344C121.396 96.5643 121.699 96.4239 121.969 96.5282C122.282 96.6461 125.057 97.7238 125.845 99.2977C125.974 99.5568 125.87 99.8707 125.611 100.001C125.536 100.039 125.455 100.056 125.377 100.056Z" fill="#241726"/>
<path d="M118.912 100.954C118.721 100.954 118.536 100.847 118.444 100.664C117.931 99.6396 115.883 98.6879 115.137 98.4062C114.866 98.3049 114.729 98.0029 114.831 97.7319C114.932 97.4617 115.237 97.3213 115.505 97.4257C115.818 97.5436 118.593 98.6213 119.381 100.195C119.51 100.454 119.406 100.768 119.147 100.898C119.072 100.937 118.991 100.954 118.912 100.954Z" fill="#241726"/>
<path d="M108.132 97.4348C108.013 97.4348 107.895 97.3949 107.796 97.3131C106.916 96.5802 104.657 96.5302 103.861 96.57C103.586 96.6099 103.324 96.3635 103.31 96.0747C103.295 95.7858 103.516 95.5394 103.806 95.5242C104.14 95.5059 107.114 95.3821 108.468 96.509C108.69 96.693 108.719 97.0238 108.534 97.2469C108.431 97.3703 108.282 97.4348 108.132 97.4348Z" fill="#241726"/>
<path d="M57.6958 106.105C57.5402 106.105 57.3845 106.036 57.2815 105.903C57.1046 105.674 57.1462 105.345 57.3748 105.167C57.6398 104.962 60.0183 103.179 61.7665 103.321C62.0553 103.346 62.2678 103.601 62.2423 103.888C62.2156 104.178 61.9344 104.381 61.6745 104.364C60.5323 104.255 58.648 105.506 58.0173 105.996C57.921 106.069 57.8082 106.105 57.6958 106.105Z" fill="#241726"/>
<path d="M56.2961 111.611C56.1405 111.611 55.9848 111.541 55.8818 111.407C55.7045 111.179 55.7465 110.85 55.9746 110.672C56.2397 110.467 58.6114 108.68 60.3676 108.826C60.6565 108.851 60.8694 109.105 60.8435 109.394C60.8181 109.683 60.5394 109.884 60.2756 109.87C59.1386 109.769 57.2483 111.013 56.6176 111.501C56.5213 111.574 56.4085 111.611 56.2961 111.611Z" fill="#241726"/>
<path d="M64.3775 109.187C64.2218 109.187 64.0662 109.117 63.9631 108.984C63.7862 108.754 63.8278 108.426 64.0564 108.248C64.3215 108.043 66.702 106.262 68.4481 106.402C68.737 106.427 68.9494 106.682 68.924 106.97C68.8973 107.259 68.6212 107.457 68.3561 107.446C67.2038 107.337 65.3296 108.588 64.6989 109.077C64.6027 109.151 64.4899 109.187 64.3775 109.187Z" fill="#241726"/>
<path d="M66.532 103.26C66.3763 103.26 66.2207 103.191 66.1176 103.058C65.9403 102.828 65.9823 102.5 66.2105 102.322C66.4756 102.117 68.8523 100.327 70.6035 100.476C70.8923 100.501 71.1052 100.756 71.0793 101.043C71.0539 101.333 70.7731 101.535 70.5115 101.519C69.3621 101.407 67.4841 102.661 66.8534 103.151C66.7567 103.225 66.6444 103.26 66.532 103.26Z" fill="#241726"/>
<path d="M113.444 101.84C113.303 101.84 113.163 101.784 113.06 101.672C112.28 100.829 110.049 100.487 109.255 100.427C108.966 100.404 108.75 100.152 108.772 99.8638C108.794 99.5741 109.076 99.3604 109.334 99.3807C109.668 99.4062 112.634 99.6674 113.83 100.96C114.026 101.173 114.013 101.505 113.801 101.701C113.699 101.794 113.571 101.84 113.444 101.84Z" fill="#241726"/>
<path d="M114.164 95.3727C114.024 95.3727 113.883 95.3163 113.78 95.2048C113 94.3646 110.767 94.0236 109.973 93.9642C109.684 93.9418 109.467 93.6898 109.49 93.4023C109.512 93.1135 109.764 92.8976 110.051 92.9184C110.385 92.9438 113.351 93.2008 114.548 94.4927C114.746 94.7048 114.732 95.036 114.52 95.2328C114.42 95.3265 114.292 95.3727 114.164 95.3727Z" fill="#241726"/>
</svg>
