<svg width="23" height="18" viewBox="0 0 23 18" fill="none" xmlns="http://www.w3.org/2000/svg">
<path d="M18.7551 7.98136C18.8966 7.55947 18.9759 7.09816 18.9759 6.61713C18.9759 4.52743 17.4924 2.83201 15.6639 2.83201C14.9843 2.83201 14.3495 3.06858 13.8251 3.47075C12.8694 1.57819 11.0858 0.308594 9.03996 0.308594C5.99018 0.308594 3.51999 3.13167 3.51999 6.61713C3.51999 6.72359 3.52344 6.83005 3.52689 6.9365C1.5949 7.71324 0.208008 9.81872 0.208008 12.2948C0.208008 15.4294 2.43325 17.9725 5.17598 17.9725H17.8719C20.3111 17.9725 22.2879 15.7133 22.2879 12.9257C22.2879 10.4851 20.7699 8.44661 18.7551 7.98136Z" fill="#D1CDAA"/>
</svg>
