<svg width="22" height="21" viewBox="0 0 22 21" fill="none" xmlns="http://www.w3.org/2000/svg">
<path d="M20.3424 7.61712H15.8739V0.993156C15.8739 0.470336 15.521 0.046875 15.0853 0.046875H10.3539C9.91823 0.046875 9.56535 0.470336 9.56535 0.993156V3.832H7.4625V0.677729C7.4625 0.329182 7.22725 0.046875 6.93679 0.046875H6.41108C6.12062 0.046875 5.88537 0.329182 5.88537 0.677729V3.832H3.78252V0.677729C3.78252 0.329182 3.54726 0.046875 3.25681 0.046875H2.7311C2.44064 0.046875 2.20539 0.329182 2.20539 0.677729V3.832H0.891107C0.455423 3.832 0.102539 4.25546 0.102539 4.77828V18.9725C0.102539 19.6692 0.57338 20.2342 1.15396 20.2342H20.0796C20.6602 20.2342 21.131 19.6692 21.131 18.9725V8.5634C21.131 8.04058 20.7778 7.61712 20.3424 7.61712ZM4.30823 15.9759C4.30823 16.2373 4.13179 16.4491 3.91395 16.4491H2.59967C2.38183 16.4491 2.20539 16.2373 2.20539 15.9759V14.3988C2.20539 14.1374 2.38183 13.9257 2.59967 13.9257H3.91395C4.13179 13.9257 4.30823 14.1374 4.30823 14.3988V15.9759ZM4.30823 12.1908C4.30823 12.4522 4.13179 12.664 3.91395 12.664H2.59967C2.38183 12.664 2.20539 12.4522 2.20539 12.1908V10.6137C2.20539 10.3523 2.38183 10.1405 2.59967 10.1405H3.91395C4.13179 10.1405 4.30823 10.3523 4.30823 10.6137V12.1908ZM4.30823 8.40569C4.30823 8.6671 4.13179 8.87883 3.91395 8.87883H2.59967C2.38183 8.87883 2.20539 8.6671 2.20539 8.40569V6.82856C2.20539 6.56715 2.38183 6.35542 2.59967 6.35542H3.91395C4.13179 6.35542 4.30823 6.56715 4.30823 6.82856V8.40569ZM8.51393 15.9759C8.51393 16.2373 8.33748 16.4491 8.11964 16.4491H6.80536C6.58752 16.4491 6.41108 16.2373 6.41108 15.9759V14.3988C6.41108 14.1374 6.58752 13.9257 6.80536 13.9257H8.11964C8.33748 13.9257 8.51393 14.1374 8.51393 14.3988V15.9759ZM8.51393 12.1908C8.51393 12.4522 8.33748 12.664 8.11964 12.664H6.80536C6.58752 12.664 6.41108 12.4522 6.41108 12.1908V10.6137C6.41108 10.3523 6.58752 10.1405 6.80536 10.1405H8.11964C8.33748 10.1405 8.51393 10.3523 8.51393 10.6137V12.1908ZM8.51393 8.40569C8.51393 8.6671 8.33748 8.87883 8.11964 8.87883H6.80536C6.58752 8.87883 6.41108 8.6671 6.41108 8.40569V6.82856C6.41108 6.56715 6.58752 6.35542 6.80536 6.35542H8.11964C8.33748 6.35542 8.51393 6.56715 8.51393 6.82856V8.40569ZM13.771 12.1908C13.771 12.4522 13.5946 12.664 13.3768 12.664H12.0625C11.8446 12.664 11.6682 12.4522 11.6682 12.1908V10.6137C11.6682 10.3523 11.8446 10.1405 12.0625 10.1405H13.3768C13.5946 10.1405 13.771 10.3523 13.771 10.6137V12.1908ZM13.771 8.40569C13.771 8.6671 13.5946 8.87883 13.3768 8.87883H12.0625C11.8446 8.87883 11.6682 8.6671 11.6682 8.40569V6.82856C11.6682 6.56715 11.8446 6.35542 12.0625 6.35542H13.3768C13.5946 6.35542 13.771 6.56715 13.771 6.82856V8.40569ZM13.771 4.62057C13.771 4.88198 13.5946 5.09371 13.3768 5.09371H12.0625C11.8446 5.09371 11.6682 4.88198 11.6682 4.62057V3.04343C11.6682 2.78202 11.8446 2.57029 12.0625 2.57029H13.3768C13.5946 2.57029 13.771 2.78202 13.771 3.04343V4.62057ZM19.0282 15.9759C19.0282 16.2373 18.8517 16.4491 18.6339 16.4491H17.3196C17.1018 16.4491 16.9253 16.2373 16.9253 15.9759V14.3988C16.9253 14.1374 17.1018 13.9257 17.3196 13.9257H18.6339C18.8517 13.9257 19.0282 14.1374 19.0282 14.3988V15.9759ZM19.0282 12.1908C19.0282 12.4522 18.8517 12.664 18.6339 12.664H17.3196C17.1018 12.664 16.9253 12.4522 16.9253 12.1908V10.6137C16.9253 10.3523 17.1018 10.1405 17.3196 10.1405H18.6339C18.8517 10.1405 19.0282 10.3523 19.0282 10.6137V12.1908Z" fill="#6B2121"/>
</svg>
