<svg id="Capa_1" enable-background="new 0 0 512 512" height="512" viewBox="0 0 512 512" width="512" xmlns="http://www.w3.org/2000/svg"><g><g><g><path d="m471.747 411.783h-169.39l-43.179-203.21h174.529c21.009 0 38.04 17.031 38.04 38.04z" fill="#7fcb8f"/></g></g><g><g><path d="m433.708 208.573h-30c21.009 0 38.04 17.031 38.04 38.04v165.17h30v-165.17c-.001-21.009-17.032-38.04-38.04-38.04z" fill="#6dc17d"/></g></g><g><g><path d="m314.725 346.672h-248.307v-293.418h184.312z" fill="#dcf2f6"/></g></g><g><g><path d="m250.73 53.254h-30l63.995 293.418h30z" fill="#bae6ef"/></g></g><g><g><path d="m405.812 208.573h-41.35v-49.387c0-7.469 6.055-13.524 13.524-13.524h14.302c7.469 0 13.524 6.055 13.524 13.524z" fill="#766d78"/></g></g><g><g><path d="m66.418 158.314h63.535v90.746h-63.535z" fill="#c8c3ca"/></g></g><g><g><path d="m231.407 22.179h-156.239c-4.833 0-8.751 3.918-8.751 8.751v22.324h184.263v-11.801c.001-10.645-8.628-19.274-19.273-19.274z" fill="#7fcb8f"/></g></g><g><g><path d="m172.744 220.387h-42.791v-107.442c0-3.077 2.494-5.572 5.572-5.572h11.512c14.198 0 25.707 11.51 25.707 25.707z" fill="#766d78"/></g></g><g><g><path d="m422.024 411.783v-71.143h-102.976c-11.946-74.857-76.792-132.067-155.014-132.067-82.517 0-150.162 63.661-156.509 144.548-.372 4.741 3.385 8.797 8.141 8.797h196.296v49.865z" fill="#7fcb8f"/></g></g><g><g><circle cx="164.033" cy="365.572" fill="#c8c3ca" r="124.248"/></g></g><g><g><circle cx="164.033" cy="365.572" fill="#766d78" r="51.891"/></g></g><g><g><path d="m164.033 313.681c-5.217 0-10.25.778-15 2.211 21.343 6.436 36.891 26.239 36.891 49.68s-15.548 43.245-36.891 49.68c4.75 1.432 9.783 2.211 15 2.211 28.659 0 51.891-23.232 51.891-51.891s-23.232-51.891-51.891-51.891z" fill="#655e67"/></g></g><g><g><ellipse cx="421.643" cy="410.563" fill="#c8c3ca" rx="78.62" ry="78.62" transform="matrix(.707 -.707 .707 .707 -166.816 418.398)"/></g></g><g><g><circle cx="425.879" cy="410.563" fill="#766d78" r="31.692"/></g></g><g><g><path d="m231.407 22.179h-30c10.645 0 19.274 8.629 19.274 19.274v11.801h30v-11.801c0-10.645-8.629-19.274-19.274-19.274z" fill="#68b76a"/></g></g><g><g><path d="m164.033 241.324c-5.078 0-10.082.312-15 .904 61.546 7.407 109.248 59.801 109.248 123.344s-47.702 115.937-109.248 123.344c4.918.592 9.922.904 15 .904 68.62 0 124.248-55.628 124.248-124.248s-55.627-124.248-124.248-124.248z" fill="#b1abb4"/></g></g><g><g><path d="m425.879 331.943c-5.131 0-10.143.508-15 1.447 36.243 7.004 63.62 38.884 63.62 77.174 0 38.289-27.377 70.169-63.62 77.173 4.857.939 9.869 1.447 15 1.447 43.421 0 78.62-35.199 78.62-78.62 0-43.422-35.199-78.621-78.62-78.621z" fill="#b1abb4"/></g></g><g><g><path d="m425.879 378.871c-5.427 0-10.534 1.366-15 3.771 9.937 5.349 16.692 15.845 16.692 27.922 0 12.076-6.755 22.572-16.692 27.921 4.466 2.404 9.573 3.771 15 3.771 17.503 0 31.692-14.189 31.692-31.692 0-17.504-14.189-31.693-31.692-31.693z" fill="#655e67"/></g></g><g><path d="m164.033 424.963c32.749 0 59.391-26.643 59.391-59.391s-26.643-59.391-59.391-59.391c-32.749 0-59.391 26.643-59.391 59.391s26.643 59.391 59.391 59.391zm0-103.782c24.477 0 44.391 19.914 44.391 44.391s-19.914 44.391-44.391 44.391c-24.478 0-44.391-19.914-44.391-44.391s19.914-44.391 44.391-44.391z"/><path d="m479.248 343.048v-96.435c0-25.111-20.429-45.54-45.54-45.54h-20.396v-41.887c0-11.475-9.245-20.818-20.676-21.007v-15.512c0-6.813 2.925-13.313 8.024-17.831l10.124-8.968c3.101-2.746 3.388-7.487.642-10.587-2.746-3.101-7.487-3.387-10.587-.641l-10.125 8.968c-8.312 7.364-13.078 17.955-13.078 29.059v15.512c-11.43.189-20.675 9.532-20.675 21.007v41.887h-10.116c-4.143 0-7.5 3.358-7.5 7.5s3.357 7.5 7.5 7.5h17.616 41.351 27.896c16.84 0 30.54 13.7 30.54 30.54v8.662h-47.16c-4.143 0-7.5 3.358-7.5 7.5s3.357 7.5 7.5 7.5h47.16v22.159h-47.16c-4.143 0-7.5 3.358-7.5 7.5s3.357 7.5 7.5 7.5h47.16v26.061c-11.562-5.78-24.587-9.052-38.368-9.052-13.507 0-26.293 3.134-37.682 8.7-.021 0-.04-.003-.061-.003h-62.819c-3.045-15.199-8.243-29.822-15.345-43.458l-16.055-73.609h22.927c4.143 0 7.5-3.358 7.5-7.5s-3.357-7.5-7.5-7.5h-26.199l-32.465-148.853v-10.767c0-14.764-12.011-26.774-26.774-26.774h-156.239c-8.961 0-16.251 7.29-16.251 16.251v208.117c-2.314 1.925-4.588 3.911-6.807 5.972-30.345 28.187-48.835 66.37-52.063 107.516-.34 4.336 1.16 8.655 4.115 11.851 2.957 3.198 7.15 5.032 11.503 5.032h16.68c2.042 70.874 60.328 127.903 131.688 127.903 53.527 0 99.696-32.089 120.293-78.038h55.873c4.384 43.407 41.137 77.4 85.68 77.4 47.486 0 86.12-38.633 86.12-86.12.001-27.341-12.822-51.728-32.751-67.515zm-107.287-141.975v-41.887c0-3.322 2.702-6.024 6.024-6.024h14.302c3.322 0 6.024 2.702 6.024 6.024v41.887zm-298.043-170.143c0-.69.561-1.251 1.251-1.251h156.238c6.493 0 11.774 5.282 11.774 11.774v4.301h-101.039c-4.142 0-7.5 3.358-7.5 7.5s3.358 7.5 7.5 7.5h102.548l29.442 134.994-26.62-15.923 2.681-4.157c2.245-3.481 1.242-8.123-2.239-10.368-3.479-2.244-8.123-1.243-10.368 2.239l-13.525 20.974c-2.245 3.481-1.242 8.123 2.239 10.368 1.257.811 2.665 1.198 4.058 1.198 2.463 0 4.876-1.212 6.31-3.437l2.71-4.203 39.138 23.41 8.943 41.005c-4.994-5.671-10.39-11.025-16.173-16.003-25.683-22.11-57.529-35.648-91.043-38.967v-68.802c0-18.311-14.897-33.207-33.207-33.207h-11.512c-7.208 0-13.072 5.864-13.072 13.072v37.869h-48.534v-90.06h38.225c4.142 0 7.5-3.358 7.5-7.5s-3.358-7.5-7.5-7.5h-38.225zm63.535 83.944h9.584c10.04 0 18.207 8.168 18.207 18.207v68.005c-.404-.003-.807-.014-1.211-.014-8.974 0-17.858.728-26.581 2.148v-88.346zm-63.535 50.94h48.535v40.572c-17.218 4.484-33.597 11.746-48.535 21.548zm2.472 122.721 7.137 7.137c1.464 1.465 3.384 2.197 5.303 2.197s3.839-.732 5.303-2.197c2.929-2.929 2.929-7.677 0-10.606l-7.137-7.137c18.815-16.558 42.982-27.165 69.537-28.857v10.146c0 4.142 3.358 7.5 7.5 7.5s7.5-3.358 7.5-7.5v-10.146c26.555 1.692 50.723 12.299 69.538 28.857l-7.137 7.137c-2.929 2.929-2.929 7.677 0 10.606 1.464 1.465 3.384 2.197 5.303 2.197s3.839-.732 5.303-2.197l7.137-7.137c16.558 18.815 27.165 42.983 28.857 69.537h-10.147c-4.143 0-7.5 3.358-7.5 7.5s3.357 7.5 7.5 7.5h10.147c-1.692 26.555-12.299 50.722-28.857 69.537l-7.137-7.137c-2.929-2.929-7.678-2.929-10.606 0-2.929 2.929-2.929 7.678 0 10.607l7.137 7.137c-18.815 16.558-42.983 27.164-69.538 28.857v-10.146c0-4.142-3.358-7.5-7.5-7.5s-7.5 3.358-7.5 7.5v10.146c-26.555-1.692-50.722-12.299-69.537-28.857l7.137-7.137c2.929-2.929 2.929-7.678 0-10.607s-7.678-2.929-10.606 0l-7.137 7.137c-16.558-18.815-27.165-42.983-28.857-69.537h10.146c4.142 0 7.5-3.358 7.5-7.5s-3.358-7.5-7.5-7.5h-10.146c1.692-26.554 12.298-50.722 28.857-69.537zm219.392 77.037c0-72.646-59.102-131.748-131.748-131.748-68.889 0-125.589 53.149-131.271 120.594h-17.097c-.072 0-.29 0-.49-.216-.196-.212-.179-.425-.174-.494 2.933-37.384 19.738-72.08 47.318-97.699 27.726-25.753 63.848-39.936 101.714-39.936 35.777 0 70.392 12.837 97.467 36.146 26.794 23.066 44.601 54.888 50.141 89.603.581 3.64 3.721 6.318 7.406 6.318h47.596c-15.115 14.35-25.033 34.105-26.63 56.143h-50.038c3.771-12.246 5.806-25.244 5.806-38.711zm130.097 116.111c-39.216 0-71.12-31.904-71.12-71.12s31.904-71.12 71.12-71.12 71.121 31.904 71.121 71.12-31.905 71.12-71.121 71.12z"/><path d="m425.879 371.371c-21.61 0-39.192 17.581-39.192 39.192s17.582 39.192 39.192 39.192 39.192-17.582 39.192-39.192c.001-21.61-17.581-39.192-39.192-39.192zm0 63.384c-13.34 0-24.192-10.853-24.192-24.192s10.853-24.192 24.192-24.192c13.34 0 24.192 10.853 24.192 24.192s-10.852 24.192-24.192 24.192z"/></g></g></svg>