<svg id="Capa_1" enable-background="new 0 0 512 512" height="512" viewBox="0 0 512 512" width="512" xmlns="http://www.w3.org/2000/svg"><g><g><g><g><g><g><path d="m159.612 279.446s-9.27-53.433-62.639-65.718c-46.636-10.735-68.252 18.98-68.252 18.98s13.079 4.822 20.432 12.738c15.507 16.694 12.914 35.612 39.525 46.372 16.431 6.644 48.831 8.601 70.934-12.372z" fill="#79ff79"/><path d="m28.723 232.708s13.078 4.821 20.433 12.74c15.504 16.694 12.912 35.609 39.519 46.37 15.334 6.204 44.573 8.32 66.369-8.47-3.578 1.401-7.318 2.536-11.197 3.37-38.757 8.33-76.927-16.334-85.257-55.092-1.249-5.811-1.759-11.612-1.586-17.296-19.164 5.845-28.281 18.378-28.281 18.378z" fill="#29e088"/><path d="m28.72 232.708s13.078 4.821 20.433 12.74c15.509 16.693 12.917 35.608 39.524 46.368 16.434 6.647 48.834 8.604 70.936-12.373 0 .001-51.215-68.171-130.893-46.735z" fill="#29e088"/><path d="m28.718 232.709s13.078 4.821 20.433 12.74c15.509 16.693 12.917 35.608 39.524 46.368 15.334 6.204 44.573 8.32 66.369-8.47-3.578 1.401-7.318 2.536-11.197 3.37-38.757 8.33-76.927-16.334-85.257-55.092-.221-1.026-.419-2.047-.587-3.074-9.256.127-19.035 1.403-29.285 4.158z" fill="#0cc166"/><path d="m52.369 249.252c5.836 7.588 8.767 15.468 13.017 22.707 43.542 1.494 66.799-18.394 66.799-18.394-2.181-13.11-10.607-26.478-14.486-32.087-6.035-3.271-12.906-5.953-20.724-7.751-2.149-.496-4.247-.903-6.286-1.233 15.422 14.012 14.01 25.389 14.01 25.389-13.364 8.836-37.892 10.935-52.33 11.369z" fill="#29e088"/><path d="m52.369 249.252c5.836 7.588 8.767 15.468 13.017 22.707 43.293 1.484 66.532-18.168 66.794-18.393-7.713-5.621-16.926-11.215-27.486-15.682-13.364 8.837-37.887 10.934-52.325 11.368z" fill="#79ff79"/><path d="m52.369 249.252c5.836 7.588 8.767 15.468 13.017 22.707 6.114.212 11.826 0 17.13-.524-7.4-6.22-13.581-13.965-18.013-22.881-4.443.387-8.593.595-12.134.698z" fill="#29e088"/></g><g><path d="m28.724 232.72c.22.819 1.059 1.3 1.88 1.09 17.443-4.466 34.884-4.914 51.864-1.332 13.981 2.949 27.693 8.624 40.754 16.865 22.266 14.049 35.031 30.86 35.157 31.028.373.497.989.705 1.56.582.212-.046.417-.136.602-.275.681-.512.819-1.48.307-2.161-.13-.173-13.237-17.436-35.978-31.784-13.372-8.438-27.424-14.25-41.765-17.275-17.453-3.682-35.371-3.221-53.28 1.365-.831.212-1.324 1.069-1.101 1.897z" fill="#c2ffc2"/></g><g><path d="m83.894 247.307c8.118-1.745 15.893-4.325 21.656-8.136l.593-.392.088-.706c.062-.497 1.329-12.337-14.503-26.722-.631-.574-1.608-.526-2.181.105s-.527 1.607.105 2.181c7.619 6.922 10.888 13.11 12.288 17.082 1.064 3.018 1.238 5.246 1.248 6.301-13.335 8.356-37.504 10.286-50.865 10.688-.852.024-1.522.737-1.497 1.589.026.852.737 1.522 1.589 1.497 8.111-.243 20.129-1.048 31.479-3.487z" fill="#c2ffc2"/></g><g><path d="m96.223 270.853c7.967-1.712 14.508-3.989 19.496-6.11 11.345-4.823 17.226-9.795 17.471-10.005l.663-.566-.143-.86c-2.254-13.548-11.058-27.389-14.739-32.711-.485-.701-1.446-.876-2.148-.392-.701.485-.876 1.447-.392 2.148 3.481 5.033 11.693 17.918 14.075 30.57-4.105 3.125-26.711 18.806-65.066 17.49-.849-.029-1.566.637-1.596 1.49-.029.852.638 1.566 1.49 1.596 11.867.407 22.221-.787 30.889-2.65z" fill="#c2ffc2"/></g></g><path d="m155.738 321.926c-4.358 0-7.891-3.533-7.891-7.891v-35.909c0-4.358 3.533-7.891 7.891-7.891 4.358 0 7.891 3.533 7.891 7.891v35.909c0 4.358-3.532 7.891-7.891 7.891z" fill="#12adb5"/><g><g><path d="m155.035 276.315s10.36-59.715 70.003-73.444c52.119-11.998 76.275 21.212 76.275 21.212s-14.616 5.389-22.834 14.236c-17.33 18.656-14.433 39.798-44.171 51.823-18.363 7.424-54.572 9.612-79.273-13.827z" fill="#79ff79"/><path d="m301.311 224.082s-14.616 5.387-22.835 14.238c-17.327 18.657-14.429 39.796-44.165 51.821-17.136 6.934-49.813 9.298-74.172-9.466 3.999 1.565 8.178 2.834 12.513 3.766 43.313 9.309 85.971-18.255 95.28-61.568 1.396-6.494 1.966-12.977 1.772-19.329 21.418 6.532 31.607 20.538 31.607 20.538z" fill="#29e088"/><path d="m301.314 224.082s-14.616 5.387-22.835 14.238c-17.332 18.656-14.435 39.794-44.171 51.82-18.366 7.428-54.575 9.616-79.275-13.827 0-.001 57.237-76.187 146.281-52.231z" fill="#29e088"/><path d="m301.317 224.084s-14.616 5.387-22.835 14.238c-17.332 18.656-14.435 39.794-44.171 51.82-17.136 6.934-49.813 9.298-74.172-9.466 3.999 1.565 8.178 2.834 12.513 3.766 43.313 9.309 85.971-18.255 95.28-61.568.247-1.147.468-2.287.656-3.435 10.346.14 21.274 1.565 32.729 4.645z" fill="#0cc166"/><path d="m274.886 242.572c-6.522 8.48-9.797 17.287-14.548 25.377-48.661 1.67-74.653-20.557-74.653-20.557 2.437-14.651 11.854-29.591 16.189-35.859 6.744-3.656 14.423-6.652 23.16-8.662 2.401-.554 4.746-1.009 7.025-1.378-17.235 15.659-15.657 28.374-15.657 28.374 14.937 9.874 42.348 12.219 58.484 12.705z" fill="#29e088"/><path d="m274.886 242.572c-6.522 8.48-9.797 17.287-14.548 25.377-48.383 1.659-74.354-20.304-74.647-20.556 8.62-6.282 18.916-12.533 30.718-17.525 14.935 9.874 42.341 12.218 58.477 12.704z" fill="#79ff79"/><path d="m274.886 242.572c-6.522 8.48-9.797 17.287-14.548 25.377-6.833.237-13.217 0-19.143-.585 8.27-6.951 15.177-15.607 20.13-25.571 4.965.431 9.603.663 13.561.779z" fill="#29e088"/></g><g><path d="m301.311 224.095c-.246.915-1.183 1.453-2.101 1.218-19.493-4.991-38.985-5.492-57.961-1.488-15.625 3.296-30.949 9.638-45.546 18.848-24.884 15.701-39.149 34.488-39.29 34.676-.417.555-1.106.787-1.743.65-.237-.051-.466-.152-.673-.307-.762-.572-.915-1.654-.343-2.416.145-.193 14.794-19.485 40.208-35.521 14.944-9.43 30.648-15.925 46.675-19.306 19.505-4.114 39.529-3.6 59.544 1.526.927.237 1.479 1.195 1.23 2.12z" fill="#c2ffc2"/></g><g><path d="m239.654 240.398c-9.072-1.95-17.761-4.834-24.202-9.092l-.663-.438-.098-.788c-.069-.555-1.485-13.787 16.208-29.863.705-.641 1.797-.588 2.437.117.641.705.588 1.796-.117 2.437-8.515 7.736-12.168 14.651-13.733 19.091-1.189 3.373-1.384 5.862-1.394 7.042 14.903 9.338 41.913 11.495 56.845 11.945.953.027 1.701.824 1.673 1.776-.029.953-.824 1.701-1.776 1.673-9.064-.275-22.496-1.174-35.18-3.9z" fill="#c2ffc2"/></g><g><path d="m225.876 266.712c-8.904-1.914-16.213-4.458-21.788-6.828-12.679-5.39-19.251-10.947-19.525-11.181l-.74-.633.16-.961c2.519-15.141 12.358-30.609 16.472-36.557.542-.784 1.616-.979 2.4-.438.784.542.979 1.617.438 2.4-3.89 5.625-13.067 20.024-15.729 34.163 4.588 3.492 29.851 21.016 72.715 19.547.949-.033 1.75.712 1.783 1.665.033.952-.713 1.751-1.665 1.783-13.262.456-24.835-.878-34.521-2.96z" fill="#c2ffc2"/></g></g></g><g><g><g><g><g><path d="m40.571 310.151c-5.947 0-10.623 5.03-10.26 10.965 6.51 106.511 94.941 190.884 203.09 190.884s196.58-84.373 203.09-190.884c.363-5.935-4.314-10.965-10.26-10.965z" fill="#73e1ff"/><path d="m246.707 362.513h-90.109c-7.762 0-14.054-6.292-14.054-14.054 0-7.762 6.292-14.054 14.054-14.054h90.109c7.762 0 14.054 6.292 14.054 14.054 0 7.762-6.292 14.054-14.054 14.054z" fill="#b6f0ff"/><g><g><path d="m375.888 383.527c-11.217.112-23.556 1.786-32.66-4.777-8.959-9.634-15.44-21.327-21.54-33.319-3.977-7.818-12.919-11.732-21.351-9.314-.097.028-.194.056-.291.083-8.347 2.39-13.861 10.314-13.195 18.971.865 11.241 2.022 25.942 2.661 34.04 4.889 38.948-14.861 34.957-16.351 47.398-1.102 9.216 28.557 20.25 17.381 32.803-5.154 6.063-11.992 10.788-15.82 17.759-3.501 6.359-3.491 14.064-.929 20.811 64.729-13.034 118.333-56.778 144.961-115.383-13.411-6.061-28.138-9.214-42.866-9.072z" fill="#79ff79"/></g></g><path d="m396.3 310.151c-23.405 86.555-102.474 150.241-196.432 150.241-60.452 0-114.74-26.353-152.014-68.199 31.915 70.638 102.983 119.803 185.542 119.803 108.158 0 196.586-84.369 203.097-190.879.363-5.935-4.314-10.965-10.26-10.965h-29.933z" fill="#5cceff"/><g><path d="m176.434 313.42c-.416-1.029-.684-2.137-.821-3.269h-135.043c-5.892 0-10.621 4.946-10.268 10.828.686 11.429 2.31 22.606 4.815 33.45 29.782 19.586 74.109-.092 91.878 67.148 5.695 14.657 15.156 30.048 30.538 33.385 23.148 4.154 15.31-20.841 9.155-33.11-19.852-31.507 5.644-33.844 25.067-52.726 9.247-11.645 5.899-29.65-3.746-40.969-4.073-4.776-9.217-8.909-11.575-14.737z" fill="#79ff79"/></g><path d="m260.764 348.459c0 3.885-1.573 7.391-4.112 9.94-2.549 2.539-6.065 4.112-9.95 4.112h-105.525c-7.761 0-14.052-6.291-14.052-14.052 0-3.886 1.573-7.391 4.112-9.94 2.549-2.539 6.054-4.112 9.94-4.112h105.526c7.77 0 14.061 6.291 14.061 14.052z" fill="#b6f0ff"/><g><path d="m195.481 362.51h-54.305c-7.761 0-14.052-6.291-14.052-14.052 0-3.886 1.573-7.391 4.112-9.94 2.549-2.539 6.054-4.112 9.94-4.112h51.139c4.821 8.666 6.466 19.264 3.166 28.104z" fill="#c2ffc2"/></g><g><g><path d="m418.754 392.601c-26.628 58.605-80.232 102.35-144.961 115.383-2.562-6.746-2.572-14.452.929-20.811 3.827-6.971 10.666-11.696 15.82-17.759 8.022-9.012-4.991-17.229-12.564-24.557 31.967-13.299 59.81-34.518 81.09-61.198 5.532.357 11.309-.082 16.82-.133 14.727-.141 29.455 3.012 42.866 9.075z" fill="#29e088"/></g></g><path d="m91.165 406.646c-13.667-19.746-23.321-42.464-27.798-66.968-1.333-7.297-7.657-12.616-15.075-12.616-9.501 0-16.793 8.571-15.103 17.92 5.258 29.083 16.69 56.016 32.905 79.386 5.118 7.376 15.528 8.653 22.324 2.788.078-.067.156-.134.233-.201 5.938-5.114 6.974-13.866 2.514-20.309z" fill="#c2ffc2"/><path d="m88.649 426.956c-.071.072-.153.133-.235.204-6.828 5.879-17.249 4.522-22.383-2.888-14.422-20.801-25.057-44.408-30.915-69.842 10.543 6.93 22.903 8.941 35.273 11.635 5.134 14.524 12.176 28.159 20.801 40.621 4.46 6.44 3.389 15.167-2.541 20.27z" fill="#b6f0ff"/></g><g><path d="m169.613 362.513h-13.015c-7.762 0-14.054-6.292-14.054-14.054 0-7.762 6.292-14.054 14.054-14.054h13.015c7.762 0 14.054 6.292 14.054 14.054.001 7.762-6.292 14.054-14.054 14.054z" fill="#efe"/><path d="m251.333 410.896h-13.015c-7.762 0-14.054-6.292-14.054-14.054 0-7.762 6.292-14.054 14.054-14.054h13.015c7.762 0 14.054 6.292 14.054 14.054 0 7.761-6.292 14.054-14.054 14.054z" fill="#5cceff"/><path d="m230.771 499.339h-13.015c-7.762 0-14.054-6.292-14.054-14.054 0-7.762 6.292-14.054 14.054-14.054h13.015c7.762 0 14.054 6.292 14.054 14.054 0 7.761-6.292 14.054-14.054 14.054z" fill="#73e1ff"/><path d="m384.751 362.513h-13.015c-7.762 0-14.054-6.292-14.054-14.054 0-7.762 6.292-14.054 14.054-14.054h13.015c7.762 0 14.054 6.292 14.054 14.054 0 7.762-6.292 14.054-14.054 14.054z" fill="#b6f0ff"/></g></g></g></g></g></g><g><g><path d="m344.9 187.556-166.891-15.953-1.116-35.571 166.227-5.216z" fill="#ffaf40"/><path d="m294.942 182.774c1.73-5.409 2.659-11.178 2.659-17.157 0-12.338-3.959-23.745-10.688-33.034l56.209-1.77 1.78 56.739z" fill="#ff993a"/><path d="m453.088 161.832-92.051 44.169c-13.257 6.361-29.16.771-35.521-12.486l-51.848-108.054c-2.12-4.419-.257-9.72 4.162-11.84l124.056-59.526c4.419-2.12 9.72-.257 11.84 4.162l51.847 108.053c6.362 13.258.772 29.161-12.485 35.522z" fill="#ffc751"/><path d="m339.145 155.503-24.859-51.809c-3.432-7.153-12.014-10.17-19.167-6.737-7.153 3.432-10.17 12.014-6.737 19.167l24.859 51.809c3.432 7.153 12.014 10.17 19.167 6.737 7.153-3.432 10.169-12.014 6.737-19.167z" fill="#ffe059"/><path d="m413.726 18.261 51.845 108.048c6.362 13.258.772 29.16-12.486 35.521l-92.046 44.166c-13.258 6.362-29.16.772-35.521-12.486l-.065-.136c10.484-1.25 20.932-4.216 30.973-9.035 49.111-23.565 69.821-82.483 46.256-131.594-5.363-11.178-12.561-20.885-21.055-28.926l20.259-9.721c4.424-2.122 9.717-.262 11.84 4.163z" fill="#ffaf40"/><path d="m201.87 146.462c-.001.08-.003.159-.004.239-.106 6.75 5.423 12.231 12.17 12.019l44.957-1.41c6.03-.189 10.948-4.896 11.392-10.913.006-.08.012-.159.018-.239.518-6.993-5.123-12.897-12.132-12.677l-44.97 1.411c-6.283.197-11.33 5.285-11.431 11.57z" fill="#ffc751"/><path d="m182.299 187.189-6.57.206c-4.432.139-8.137-3.341-8.276-7.773l-1.605-51.164c-.139-4.432 3.341-8.137 7.773-8.276l6.57-.206c4.432-.139 8.137 3.341 8.276 7.773l1.605 51.164c.139 4.431-3.341 8.137-7.773 8.276z" fill="#ff993a"/><g><path d="m463.506 95.157-10.47 5.024-11.518-24.004 10.707-5.137c11.405-5.472 16.775-19.029 11.643-30.591-5.332-12.014-19.543-17.187-31.31-11.541l-100.122 48.042c-6.628 3.181-14.58.385-17.761-6.243-3.18-6.628-.385-14.58 6.243-17.761l100.122-48.041c25.024-12.007 55.2-1.206 66.866 24.089 11.462 24.851.274 54.324-24.4 66.163z" fill="#ff993a"/></g><g><path d="m335.13 60.892c3.181 6.628 11.132 9.423 17.761 6.243l17.753-8.518c6.628-3.181 9.423-11.132 6.243-17.761-3.181-6.628-11.132-9.423-17.761-6.243l-17.753 8.518c-6.629 3.181-9.424 11.133-6.243 17.761z" fill="#ffaf40"/></g></g><path d="m451.826 97.665 13.744 28.644c6.362 13.258.772 29.16-12.486 35.521l-35.725 17.142c25.255-19.146 38.183-50.341 34.467-81.307z" fill="#ff993a"/></g><g><g><g><g><path d="m359.848 271.936c1.656-1.268 1.656-4.085 0-5.353-4.274-3.274-8.331-7.082-12.099-11.429-3.767-4.347-7.068-9.028-9.906-13.959-1.099-1.911-3.54-1.911-4.64 0-2.837 4.931-6.138 9.612-9.906 13.959-3.767 4.347-7.824 8.156-12.099 11.429-1.656 1.268-1.656 4.085 0 5.353 4.274 3.274 8.331 7.082 12.099 11.429 3.767 4.347 7.068 9.028 9.906 13.959 1.099 1.911 3.54 1.911 4.64 0 2.837-4.931 6.138-9.612 9.906-13.959 3.767-4.347 7.824-8.155 12.099-11.429z" fill="#efe"/></g></g><g><g><path d="m359.849 271.934c-4.274 3.274-8.33 7.081-12.099 11.43s-7.069 9.029-9.906 13.96c-1.1 1.908-3.538 1.908-4.638 0-2.837-4.931-6.137-9.611-9.906-13.96-.49-.566-.988-1.124-1.492-1.673.666.065 1.338.097 2.018.097 12.933 0 23.476-11.85 23.911-26.651.007.008.007.008.014.016 3.769 4.349 7.825 8.156 12.099 11.43 1.652 1.269 1.652 4.082-.001 5.351z" fill="#c2ffc2"/></g></g></g><g><g><g><path d="m326.009 262.771c1.31-1.003 1.31-3.231 0-4.234-3.381-2.589-6.59-5.602-9.57-9.04s-5.591-7.141-7.835-11.042c-.869-1.511-2.8-1.511-3.67 0-2.244 3.901-4.855 7.603-7.835 11.042-2.98 3.438-6.189 6.451-9.57 9.04-1.31 1.003-1.31 3.231 0 4.234 3.381 2.589 6.59 5.602 9.57 9.04s5.591 7.141 7.835 11.042c.869 1.511 2.8 1.511 3.67 0 2.244-3.901 4.855-7.603 7.835-11.042s6.189-6.451 9.57-9.04z" fill="#c2ffc2"/></g></g><g><g><path d="m326.01 262.769c-3.38 2.589-6.589 5.601-9.57 9.041s-5.591 7.142-7.836 11.042c-.87 1.509-2.798 1.509-3.668 0-2.244-3.9-4.854-7.602-7.836-11.042-.388-.448-.781-.889-1.18-1.323.526.051 1.058.077 1.596.077 10.229 0 18.569-9.373 18.913-21.08.006.006.006.006.011.013 2.981 3.44 6.19 6.451 9.57 9.041 1.307 1.003 1.307 3.228 0 4.231z" fill="#79ff79"/></g></g></g></g><g><g><g><g><path d="m59.042 183.366c1.31-1.003 1.31-3.231 0-4.234-3.381-2.589-6.59-5.602-9.57-9.04s-5.591-7.141-7.835-11.042c-.869-1.511-2.8-1.511-3.67 0-2.244 3.901-4.855 7.603-7.835 11.042s-6.189 6.451-9.57 9.04c-1.31 1.003-1.31 3.231 0 4.234 3.381 2.589 6.59 5.602 9.57 9.04s5.591 7.141 7.835 11.042c.869 1.511 2.8 1.511 3.67 0 2.244-3.901 4.855-7.603 7.835-11.042 2.98-3.438 6.189-6.451 9.57-9.04z" fill="#c2ffc2"/></g></g><g><g><path d="m59.043 183.364c-3.38 2.589-6.589 5.601-9.57 9.041s-5.591 7.142-7.836 11.042c-.87 1.509-2.798 1.509-3.668 0-2.244-3.9-4.854-7.602-7.836-11.042-.388-.448-.781-.889-1.18-1.323.526.051 1.058.077 1.596.077 10.229 0 18.569-9.373 18.913-21.08.006.006.006.006.011.013 2.981 3.44 6.19 6.451 9.57 9.041 1.307 1.002 1.307 3.227 0 4.231z" fill="#79ff79"/></g></g></g></g><path d="m153.3 167.453-6.942 2.09c-10.123 3.048-17.681 11.518-19.559 21.923l-1.039 5.754c-1.808 10.013 5.887 19.222 16.062 19.222 10.134 0 17.819-9.138 16.08-19.122l-1.57-9.012c-.915-5.256-.316-10.663 1.727-15.591 1.268-3.059-1.588-6.218-4.759-5.264z" fill="#73e1ff"/><path d="m153.405 149.135-4.598-4.343c-6.706-6.333-16.398-8.368-25.085-5.268l-4.804 1.715c-8.361 2.984-11.983 12.808-7.56 20.505 4.405 7.666 14.658 9.507 21.454 3.852l6.135-5.104c3.578-2.977 7.929-4.874 12.545-5.47 2.866-.369 4.014-3.903 1.913-5.887z" fill="#b6f0ff"/><path d="m157.902 197.32c.17.96.25 1.9.25 2.839 0 8.808-7.169 16.287-16.327 16.287-3.959 0-7.549-1.4-10.348-3.699 9.808-4.259 16.667-14.037 16.667-25.415 0-6.149-2.01-11.828-5.399-16.427 1.16-.53 2.37-.99 3.609-1.36l6.949-2.09c2.64-.8 5.069 1.26 5.069 3.739 0 .5-.1 1.01-.31 1.52-2.05 4.929-2.65 10.338-1.73 15.597z" fill="#5cceff"/><path d="m154.483 151.609c0 1.61-1.13 3.169-2.989 3.419-4.619.59-8.968 2.49-12.548 5.469l-6.129 5.099c-2.68 2.23-5.909 3.299-9.098 3.299-3.419 0-6.789-1.22-9.418-3.559 14.217-.27 25.745-11.498 26.515-25.585 2.919 1.13 5.639 2.819 7.988 5.039l4.599 4.349c.74.7 1.08 1.59 1.08 2.47z" fill="#73e1ff"/></g><g><path d="m463.51 95.161-10.478 5.019-7.789-16.237c18.626-9.238 31.424-28.445 31.424-50.64 0-8.698-1.96-16.927-5.469-24.285 7.019 4.879 12.868 11.638 16.707 19.976 11.468 24.854.28 54.319-24.395 66.167z" fill="#f97c15"/></g></g></svg>